<svg xmlns="http://www.w3.org/2000/svg" xmlns:xlink="http://www.w3.org/1999/xlink" viewBox="0 0 276.32 276.32"><defs><style>.cls-1{stroke:#304369;stroke-miterlimit:10;stroke-width:20.32px;fill:url(#radial-gradient);}.cls-2{fill:#5166af;}.cls-3{fill:#91bdd4;}.cls-4{fill:#1f2527;}.cls-5{fill:#010101;}.cls-6{fill:#fff;}.cls-7{fill:#d8e8f3;}</style><radialGradient id="radial-gradient" cx="105" cy="153.18" r="163.86" gradientUnits="userSpaceOnUse"><stop offset="0" stop-color="#fff"/><stop offset="0.07" stop-color="#f6fafc"/><stop offset="0.9" stop-color="#91bed4"/></radialGradient></defs><title>azos-icon</title><g id="Layer_2" data-name="Layer 2"><g id="Layer_1-2" data-name="Layer 1"><rect class="cls-1" x="10.16" y="10.16" width="256" height="256" rx="25.66"/><polygon class="cls-2" points="131.5 142.37 131.5 142.36 131.5 142.36 131.5 142.37"/><rect class="cls-3" x="74.4" y="212.83" width="9.12" height="19.92"/><rect class="cls-3" x="90.37" y="212.83" width="9.12" height="19.92"/><rect class="cls-3" x="106.34" y="212.83" width="9.12" height="19.92"/><path class="cls-4" d="M121.4,156.76c13.1,0,23.78,10.45,23.78,23.27V231.3c0,12.82-10.68,23.28-23.78,23.28h-54c-13.1,0-23.78-10.46-23.78-23.28V180c0-12.82,10.68-23.27,23.78-23.27Zm-54,22.09a1.16,1.16,0,0,0-1.2,1.18V231.3a1.16,1.16,0,0,0,1.2,1.18h54a1.16,1.16,0,0,0,1.2-1.18V180a1.16,1.16,0,0,0-1.2-1.18Z"/><path class="cls-4" d="M253,184.25H230.37V180a1.16,1.16,0,0,0-1.2-1.18h-54A1.17,1.17,0,0,0,174,180v13.49c0,.68.52,1,1.2,1h54A23.46,23.46,0,0,1,253,217.81V231.3a23.47,23.47,0,0,1-23.78,23.28h-54c-13.1,0-23.79-10.46-23.79-23.28v-4.22H174v4.22a1.17,1.17,0,0,0,1.2,1.18h54a1.16,1.16,0,0,0,1.2-1.18V217.81c0-.68-.51-1-1.2-1h-54c-13.1,0-23.79-10.46-23.79-23.28V180c0-12.82,10.69-23.27,23.79-23.27h54A23.46,23.46,0,0,1,253,180Z"/><polygon class="cls-5" points="136.36 142.26 136.36 142.25 136.35 142.25 136.36 142.26"/><path class="cls-6" d="M136.34,143v-.62l-.3.22Z"/><polygon class="cls-2" points="145.48 46.03 145.48 46.03 145.48 46.03 145.48 46.03"/><polygon class="cls-5" points="150.33 46.29 150.33 46.29 150.33 46.29 150.33 46.29"/><path class="cls-6" d="M150.33,46.29l-.07.1.07,0Z"/><path class="cls-7" d="M20.68,103.7h93.45a64.58,64.58,0,1,0-1.59-32.24H20.68Zm155-51.48A32.25,32.25,0,1,1,156.3,58.7,32.25,32.25,0,0,1,175.68,52.22Z"/><path class="cls-4" d="M113.06,116.43H50.77L36.63,153.38H24.47L76.4,21.86h11l51.92,131.52H127.29ZM54.35,107h55L81.87,35.4Z"/><path class="cls-4" d="M157,143.63h67.87v9.75H142.74v-8.5L206.06,59H144.67v-10h76V57.6Z"/></g></g></svg>