<?xml version="1.0" standalone="no"?><!-- Generator: Gravit.io --><svg xmlns="http://www.w3.org/2000/svg" xmlns:xlink="http://www.w3.org/1999/xlink" style="isolation:isolate" viewBox="0 0 360 360" width="360" height="360"><defs><clipPath id="_clipPath_mw4v1EFq64oEMc8p3DXKpi7Vsda1UsdM"><rect width="360" height="360"/></clipPath></defs><g clip-path="url(#_clipPath_mw4v1EFq64oEMc8p3DXKpi7Vsda1UsdM)"><rect width="360" height="360" style="fill:rgb(0,0,0)" fill-opacity="0"/><path d=" M 1.329 199.281 C 39.439 158.185 96.742 121.735 165.402 98.882 C 224.534 79.199 282.966 72.639 333.255 77.639 C 316.004 167.205 270.999 234.736 203.558 257.183 C 139.163 278.617 66.51 254.889 1.329 199.281 Z " fill-rule="evenodd" fill="rgb(255,51,0)" fill-opacity="0.5"/><path d=" M 1.329 197.93 C 52.023 174.024 118.788 161.591 191.016 166.011 C 253.222 169.817 309.88 185.536 354.671 208.941 C 305.242 285.6 238.287 331.457 167.342 327.116 C 99.6 322.971 41.05 273.845 1.329 197.93 Z " fill-rule="evenodd" fill="rgb(157,255,0)"/><path d=" M 1.329 196.399 C 46.031 162.591 108.819 136.71 180.416 126.199 C 242.076 117.148 300.756 120.893 349.399 134.6 C 316.77 219.777 260.661 278.408 190.337 288.732 C 123.188 298.589 55.796 262.537 1.329 196.399 Z " fill-rule="evenodd" fill="rgb(251,255,0)" fill-opacity="0.5"/><defs><filter id="qwc4JCOkvHNgc0SEOi4CeCR9MR3cImi3" x="-200%" y="-200%" width="400%" height="400%" filterUnits="objectBoundingBox" color-interpolation-filters="sRGB"><feGaussianBlur xmlns="http://www.w3.org/2000/svg" in="SourceGraphic" stdDeviation="1.7174436251356113"/><feOffset xmlns="http://www.w3.org/2000/svg" dx="0" dy="1" result="pf_100_offsetBlur"/><feFlood xmlns="http://www.w3.org/2000/svg" flood-color="#000000" flood-opacity="0.9"/><feComposite xmlns="http://www.w3.org/2000/svg" in2="pf_100_offsetBlur" operator="in" result="pf_100_dropShadow"/><feBlend xmlns="http://www.w3.org/2000/svg" in="SourceGraphic" in2="pf_100_dropShadow" mode="normal"/></filter></defs><g filter="url(#qwc4JCOkvHNgc0SEOi4CeCR9MR3cImi3)" style="mix-blend-mode:normal;" opacity="0.8"><g transform="matrix(1,0,0,1,31,46)"><text transform="matrix(1,0,0,1,0,196.777)" style="font-family:'Agency FB';font-weight:400;font-size:200px;font-style:normal;fill:#350a0a;stroke:none;">Azos</text></g></g></g></svg>