<?xml version="1.0" standalone="no"?><!-- Generator: Gravit.io --><svg xmlns="http://www.w3.org/2000/svg" xmlns:xlink="http://www.w3.org/1999/xlink" style="isolation:isolate" viewBox="0 0 256 256" width="256" height="256"><defs><clipPath id="_clipPath_qMQayy0qG8tweIdrT5NnOE9YFr3ET4ei"><rect width="256" height="256"/></clipPath></defs><g clip-path="url(#_clipPath_qMQayy0qG8tweIdrT5NnOE9YFr3ET4ei)"><g><defs><filter id="4w8G81wJfbUlJsTZ79lyVWTwmJFKneU4" x="-200%" y="-200%" width="400%" height="400%" filterUnits="objectBoundingBox" color-interpolation-filters="sRGB"><feGaussianBlur xmlns="http://www.w3.org/2000/svg" in="SourceGraphic" stdDeviation="4"/><feOffset xmlns="http://www.w3.org/2000/svg" dx="4.9497" dy="4.9497" result="pf_100_offsetBlur"/><feFlood xmlns="http://www.w3.org/2000/svg" flood-color="#000000" flood-opacity="0.65"/><feComposite xmlns="http://www.w3.org/2000/svg" in2="pf_100_offsetBlur" operator="in" result="pf_100_dropShadow"/><feBlend xmlns="http://www.w3.org/2000/svg" in="SourceGraphic" in2="pf_100_dropShadow" mode="normal"/></filter></defs><g filter="url(#4w8G81wJfbUlJsTZ79lyVWTwmJFKneU4)"><linearGradient id="_lgradient_0" x1="0" y1="0.5" x2="6.123233995736766e-17" y2="1.5" gradientTransform="matrix(209.442,0,0,106.383,11.796,128.741)" gradientUnits="userSpaceOnUse"><stop offset="1.7789999999999948%" stop-opacity="1" style="stop-color:rgb(122,255,77)"/><stop offset="96.45000000000002%" stop-opacity="1" style="stop-color:rgb(178,178,0)"/></linearGradient><path d=" M 50 184.333 C 47.333 185.667 8.667 195.667 12 212.667 L 47.691 225.918 L 63.667 233 C 82 235.667 85.375 238 105.333 225.667 C 105.333 225.667 135.876 203.821 155.625 194.625 L 157.625 193.438 L 163.313 191 L 177 185 L 177 184.625 L 199.625 172.313 C 250.822 141.921 199.078 148.211 167.625 133 C 135.319 117.377 112.423 149.344 87 155 L 50 184.333 L 50 184.333 Z " fill="url(#_lgradient_0)" vector-effect="non-scaling-stroke" stroke-width="3" stroke="rgb(102,102,102)" stroke-linejoin="miter" stroke-linecap="butt" stroke-miterlimit="4"/></g></g><g><linearGradient id="_lgradient_1" x1="0.4736580927962948" y1="0.14060627291601904" x2="0.8160615333719293" y2="0.46990319257908764" gradientTransform="matrix(53.5,0,0,163.798,59.5,21.5)" gradientUnits="userSpaceOnUse"><stop offset="0.8695652173913043%" stop-opacity="1" style="stop-color:rgb(141,145,128)"/><stop offset="99.1304347826087%" stop-opacity="1" style="stop-color:rgb(0,0,0)"/></linearGradient><path d=" M 104.813 21.5 C 106.833 60.833 112.779 144.526 113 184 C 96.201 185.512 73.557 187.681 59.5 177.5 C 62.212 139.899 74.26 60.699 76.313 21.625 L 76.167 21.5 L 79.625 24 C 85.743 25.181 99.597 26.194 104.813 21.5 Z " fill="url(#_lgradient_1)" vector-effect="non-scaling-stroke" stroke-width="1" stroke="rgb(102,102,102)" stroke-linejoin="miter" stroke-linecap="butt" stroke-miterlimit="4"/><linearGradient id="_lgradient_2" x1="0" y1="0.5" x2="0.6954206653978682" y2="-0.21860287929953792" gradientTransform="matrix(31,0,0,11,75,15)" gradientUnits="userSpaceOnUse"><stop offset="27.057788742497312%" stop-opacity="1" style="stop-color:rgb(0,0,0)"/><stop offset="88.74188874249728%" stop-opacity="1" style="stop-color:rgb(153,153,153)"/></linearGradient><path d=" M 75 20.5 C 75 17.462 81.94 15 90.5 15 C 99.061 15 106 17.462 106 20.5 C 106 23.538 99.061 26 90.5 26 C 81.94 26 75 23.538 75 20.5 Z " fill="url(#_lgradient_2)" vector-effect="non-scaling-stroke" stroke-width="3" stroke="rgb(0,0,0)" stroke-linejoin="miter" stroke-linecap="butt" stroke-miterlimit="4"/><defs><filter id="Zng4Qv1mqydnJFEAt25zmi9PxAdzXOUb" x="-200%" y="-200%" width="400%" height="400%" filterUnits="objectBoundingBox" color-interpolation-filters="sRGB"><feGaussianBlur xmlns="http://www.w3.org/2000/svg" in="SourceGraphic" stdDeviation="4"/><feOffset xmlns="http://www.w3.org/2000/svg" dx="1.4142" dy="1.4142" result="pf_100_offsetBlur"/><feFlood xmlns="http://www.w3.org/2000/svg" flood-color="#000000" flood-opacity="0.65"/><feComposite xmlns="http://www.w3.org/2000/svg" in2="pf_100_offsetBlur" operator="in" result="pf_100_dropShadow"/><feBlend xmlns="http://www.w3.org/2000/svg" in="SourceGraphic" in2="pf_100_dropShadow" mode="normal"/></filter></defs><g opacity="0.8784" filter="url(#Zng4Qv1mqydnJFEAt25zmi9PxAdzXOUb)"><path d=" M 75.667 35.333 C 76.126 35.027 85 43.667 106 36.625" fill="none" vector-effect="non-scaling-stroke" stroke-width="6" stroke="rgb(255,255,0)" stroke-linejoin="miter" stroke-linecap="butt" stroke-miterlimit="4"/></g><defs><filter id="IpO1ULjXlkHX4ZsTzFSkQ8vkwqIDbDmZ" x="-200%" y="-200%" width="400%" height="400%" filterUnits="objectBoundingBox" color-interpolation-filters="sRGB"><feGaussianBlur xmlns="http://www.w3.org/2000/svg" in="SourceGraphic" stdDeviation="4"/><feOffset xmlns="http://www.w3.org/2000/svg" dx="1.4142" dy="1.4142" result="pf_100_offsetBlur"/><feFlood xmlns="http://www.w3.org/2000/svg" flood-color="#000000" flood-opacity="0.65"/><feComposite xmlns="http://www.w3.org/2000/svg" in2="pf_100_offsetBlur" operator="in" result="pf_100_dropShadow"/><feBlend xmlns="http://www.w3.org/2000/svg" in="SourceGraphic" in2="pf_100_dropShadow" mode="normal"/></filter></defs><g opacity="0.8784" filter="url(#IpO1ULjXlkHX4ZsTzFSkQ8vkwqIDbDmZ)"><path d=" M 75.667 44.333 C 76.126 44.027 85 52.667 106 45.625" fill="none" vector-effect="non-scaling-stroke" stroke-width="6" stroke="rgb(255,255,0)" stroke-linejoin="miter" stroke-linecap="butt" stroke-miterlimit="4"/></g><linearGradient id="_lgradient_3" x1="0.36448598130841103" y1="0.03968311525718193" x2="0.9999999999999999" y2="0.49999999999999994" gradientTransform="matrix(53.5,0,0,163.798,106.5,14.5)" gradientUnits="userSpaceOnUse"><stop offset="0%" stop-opacity="1" style="stop-color:rgb(185,185,185)"/><stop offset="100%" stop-opacity="1" style="stop-color:rgb(0,0,0)"/></linearGradient><path d=" M 151.813 14.5 C 153.833 53.833 159.779 137.526 160 177 C 143.201 178.512 120.557 180.681 106.5 170.5 C 109.212 132.899 121.26 53.699 123.313 14.625 L 123.167 14.5 L 126.625 17 C 132.743 18.181 146.597 19.194 151.813 14.5 Z " fill="url(#_lgradient_3)" vector-effect="non-scaling-stroke" stroke-width="1" stroke="rgb(102,102,102)" stroke-linejoin="miter" stroke-linecap="butt" stroke-miterlimit="4"/><linearGradient id="_lgradient_4" x1="0" y1="0.5" x2="0.6954206653978674" y2="-0.2186028792995387" gradientTransform="matrix(31,0,0,11,122,8)" gradientUnits="userSpaceOnUse"><stop offset="27.05778874249728%" stop-opacity="1" style="stop-color:rgb(0,0,0)"/><stop offset="88.74188874249734%" stop-opacity="1" style="stop-color:rgb(153,153,153)"/></linearGradient><path d=" M 122 13.5 C 122 10.462 128.94 8 137.5 8 C 146.061 8 153 10.462 153 13.5 C 153 16.538 146.061 19 137.5 19 C 128.94 19 122 16.538 122 13.5 Z " fill="url(#_lgradient_4)" vector-effect="non-scaling-stroke" stroke-width="3" stroke="rgb(0,0,0)" stroke-linejoin="miter" stroke-linecap="butt" stroke-miterlimit="4"/><defs><filter id="J6ywPMDmJdS4S1XdbvEr7yhTFfeLlEnR" x="-200%" y="-200%" width="400%" height="400%" filterUnits="objectBoundingBox" color-interpolation-filters="sRGB"><feGaussianBlur xmlns="http://www.w3.org/2000/svg" in="SourceGraphic" stdDeviation="4"/><feOffset xmlns="http://www.w3.org/2000/svg" dx="1.4142" dy="1.4142" result="pf_100_offsetBlur"/><feFlood xmlns="http://www.w3.org/2000/svg" flood-color="#000000" flood-opacity="0.65"/><feComposite xmlns="http://www.w3.org/2000/svg" in2="pf_100_offsetBlur" operator="in" result="pf_100_dropShadow"/><feBlend xmlns="http://www.w3.org/2000/svg" in="SourceGraphic" in2="pf_100_dropShadow" mode="normal"/></filter></defs><g opacity="0.8784" filter="url(#J6ywPMDmJdS4S1XdbvEr7yhTFfeLlEnR)"><path d=" M 122.667 28.333 C 123.126 28.027 132 36.667 153 29.625" fill="none" vector-effect="non-scaling-stroke" stroke-width="6" stroke="rgb(255,255,0)" stroke-linejoin="miter" stroke-linecap="butt" stroke-miterlimit="4"/></g><defs><filter id="EpfsN7vyQVkAt8rySf9CGDbzIowolNrz" x="-200%" y="-200%" width="400%" height="400%" filterUnits="objectBoundingBox" color-interpolation-filters="sRGB"><feGaussianBlur xmlns="http://www.w3.org/2000/svg" in="SourceGraphic" stdDeviation="4"/><feOffset xmlns="http://www.w3.org/2000/svg" dx="1.4142" dy="1.4142" result="pf_100_offsetBlur"/><feFlood xmlns="http://www.w3.org/2000/svg" flood-color="#000000" flood-opacity="0.65"/><feComposite xmlns="http://www.w3.org/2000/svg" in2="pf_100_offsetBlur" operator="in" result="pf_100_dropShadow"/><feBlend xmlns="http://www.w3.org/2000/svg" in="SourceGraphic" in2="pf_100_dropShadow" mode="normal"/></filter></defs><g opacity="0.8784" filter="url(#EpfsN7vyQVkAt8rySf9CGDbzIowolNrz)"><path d=" M 122.667 37.333 C 123.126 37.027 132 45.667 153 38.625" fill="none" vector-effect="non-scaling-stroke" stroke-width="6" stroke="rgb(255,255,0)" stroke-linejoin="miter" stroke-linecap="butt" stroke-miterlimit="4"/></g></g><g><radialGradient id="_rgradient_4" fx="0.8049580000000001" fy="0.510309" cx="0.8049580000000001" cy="0.510309" r="0.860603" gradientTransform="matrix(135.014,0,0,129.333,75.32,92)" gradientUnits="userSpaceOnUse"><stop offset="0%" stop-opacity="1" style="stop-color:rgb(140,105,0)"/><stop offset="100%" stop-opacity="1" style="stop-color:rgb(255,191,0)"/></radialGradient><path d=" M 207.653 157 C 165.361 182.206 117.449 195.852 75.32 221.333 C 75.743 193.602 76.418 165.729 75.32 138 C 120.199 121.119 165.51 112.963 208.986 92 C 209.865 111.85 212.475 138.364 206.653 157.313 L 207.653 157 L 207.653 157 Z " fill="url(#_rgradient_4)" vector-effect="non-scaling-stroke" stroke-width="1" stroke="rgb(68,68,68)" stroke-linejoin="miter" stroke-linecap="butt" stroke-miterlimit="4"/><radialGradient id="_rgradient_5" fx="0.6730769999999999" fy="0.809203" cx="0.6730769999999999" cy="0.809203" r="0.441164" gradientTransform="matrix(52,0,0,95.979,25,124.333)" gradientUnits="userSpaceOnUse"><stop offset="0%" stop-opacity="1" style="stop-color:rgb(64,48,0)"/><stop offset="100%" stop-opacity="1" style="stop-color:rgb(140,105,0)"/></radialGradient><path d=" M 76.667 139.333 L 75.625 220.313 L 27 204.313 L 26.05 141.062 L 25 141.313 L 26.667 131.333 C 35.987 130.755 42.333 124.333 51.667 124.667 L 54.333 124.333 L 77 139.313 L 76.667 139.333 L 76.667 139.333 Z " fill="url(#_rgradient_5)" vector-effect="non-scaling-stroke" stroke-width="1" stroke="rgb(85,85,85)" stroke-linejoin="miter" stroke-linecap="butt" stroke-miterlimit="4"/><linearGradient id="_lgradient_5" x1="0.5613433858807403" y1="0.3952093441860216" x2="0.7368060315284444" y2="0.5748499551796679" gradientTransform="matrix(182.375,0,0,55.667,27.625,82)" gradientUnits="userSpaceOnUse"><stop offset="0%" stop-opacity="1" style="stop-color:rgb(255,78,38)"/><stop offset="48.26086956521739%" stop-opacity="1" style="stop-color:rgb(183,173,148)"/><stop offset="99.1304347826087%" stop-opacity="1" style="stop-color:rgb(121,91,34)"/></linearGradient><path d=" M 76 137.667 L 54.667 123 L 27.625 130.625 C 67.068 113.767 108.953 99.662 151.133 91.686 L 151.133 91.701 L 156.104 90.208 L 165.625 87 C 170.712 86.848 192 82 192 82 L 199.667 89.333 C 203.352 90.263 206.881 91.679 210 93.313 L 189 102 L 188.836 101.604 C 151.94 115.852 111.743 120.179 76 137.625 L 76 137.667 L 76 137.667 Z " fill="url(#_lgradient_5)" vector-effect="non-scaling-stroke" stroke-width="1" stroke="rgb(68,68,68)" stroke-linejoin="miter" stroke-linecap="butt" stroke-miterlimit="4"/><g opacity="0.702"><line x1="55.5" y1="122.5" x2="181.5" y2="84.5" vector-effect="non-scaling-stroke" stroke-width="1" stroke="rgb(0,0,0)" stroke-linejoin="miter" stroke-linecap="butt" stroke-miterlimit="4"/></g><radialGradient id="_rgradient_6" fx="0.261225" fy="0.264044" cx="0.261225" cy="0.264044" r="0.46824899999999997" gradientTransform="matrix(46.361,0,0,13.758,27.889,125.367)" gradientUnits="userSpaceOnUse"><stop offset="0%" stop-opacity="1" style="stop-color:rgb(68,68,68)"/><stop offset="100%" stop-opacity="1" style="stop-color:rgb(125,81,11)"/></radialGradient><path d=" M 74.25 139.125 C 49.736 121.241 54.546 122.668 28.125 132.75 C 24.903 133.979 55.5 138.667 73 138.125" fill="url(#_rgradient_6)" vector-effect="non-scaling-stroke" stroke-width="1" stroke="rgb(68,68,68)" stroke-linejoin="miter" stroke-linecap="butt" stroke-miterlimit="4"/></g><g><path d=" M 93.375 144.875 C 97.281 142.271 101.75 137.375 106 142 C 108.918 145.176 107.625 183.773 107.625 190.313 C 107.625 194.664 98.81 197.043 95.625 197.625 C 94.554 198.014 94.38 193.164 94.313 192.313 C 93.056 176.369 94.27 160.91 93.375 144.875 Z " fill="rgb(173,220,230)" vector-effect="non-scaling-stroke" stroke-width="1" stroke="rgb(102,102,102)" stroke-linejoin="miter" stroke-linecap="butt" stroke-miterlimit="4"/><path d=" M 113 137.74 C 117.031 135.161 121.643 130.312 126.028 134.892 C 129.04 138.037 127.705 176.26 127.705 182.737 C 127.705 187.045 118.609 189.402 115.322 189.978 C 114.216 190.363 114.037 185.56 113.968 184.717 C 112.671 168.928 113.923 153.619 113 137.74 Z " fill="rgb(173,220,230)" vector-effect="non-scaling-stroke" stroke-width="1" stroke="rgb(102,102,102)" stroke-linejoin="miter" stroke-linecap="butt" stroke-miterlimit="4"/><path d=" M 133 130.573 C 137.031 128.085 141.643 123.407 146.028 127.826 C 149.04 130.861 147.705 167.742 147.705 173.991 C 147.705 178.149 138.609 180.423 135.322 180.979 C 134.216 181.35 134.037 176.716 133.968 175.903 C 132.671 160.667 133.923 145.896 133 130.573 Z " fill="rgb(173,220,230)" vector-effect="non-scaling-stroke" stroke-width="1" stroke="rgb(102,102,102)" stroke-linejoin="miter" stroke-linecap="butt" stroke-miterlimit="4"/><line x1="93.5" y1="174.5" x2="107.5" y2="168.5" vector-effect="non-scaling-stroke" stroke-width="2" stroke="rgb(119,119,119)" stroke-linejoin="miter" stroke-linecap="butt" stroke-miterlimit="4"/><line x1="113.5" y1="165.5" x2="127.5" y2="159.5" vector-effect="non-scaling-stroke" stroke-width="2" stroke="rgb(119,119,119)" stroke-linejoin="miter" stroke-linecap="butt" stroke-miterlimit="4"/><line x1="133.5" y1="156.5" x2="147.5" y2="150.5" vector-effect="non-scaling-stroke" stroke-width="2" stroke="rgb(119,119,119)" stroke-linejoin="miter" stroke-linecap="butt" stroke-miterlimit="4"/><g opacity="0.6118"><line x1="100.5" y1="172.5" x2="100.5" y2="196.5" vector-effect="non-scaling-stroke" stroke-width="2" stroke="rgb(119,119,119)" stroke-linejoin="miter" stroke-linecap="butt" stroke-miterlimit="4"/></g><g opacity="0.6118"><line x1="120.5" y1="164.5" x2="120.5" y2="188.5" vector-effect="non-scaling-stroke" stroke-width="2" stroke="rgb(119,119,119)" stroke-linejoin="miter" stroke-linecap="butt" stroke-miterlimit="4"/></g><g opacity="0.6118"><line x1="140.5" y1="155.5" x2="140.5" y2="179.5" vector-effect="non-scaling-stroke" stroke-width="2" stroke="rgb(119,119,119)" stroke-linejoin="miter" stroke-linecap="butt" stroke-miterlimit="4"/></g></g><g><linearGradient id="_lgradient_6" x1="0" y1="0.5" x2="0.356701813792431" y2="1.4342182914272177" gradientTransform="matrix(31.25,0,0,39.656,168,133.469)" gradientUnits="userSpaceOnUse"><stop offset="21.720912676576024%" stop-opacity="1" style="stop-color:rgb(85,85,85)"/><stop offset="50.34643918237604%" stop-opacity="1" style="stop-color:rgb(85,85,85)"/><stop offset="66.93620966497605%" stop-opacity="1" style="stop-color:rgb(170,170,170)"/><stop offset="75.06846617077603%" stop-opacity="1" style="stop-color:rgb(85,85,85)"/><stop offset="80.27311267657605%" stop-opacity="1" style="stop-color:rgb(51,51,51)"/></linearGradient><path d=" M 199.25 134 L 199.25 157.625 L 168.5 173.125 L 168 144.75 L 177.75 135.625 C 184.75 131.375 194.125 134.875 199.25 134 Z " fill="url(#_lgradient_6)" vector-effect="non-scaling-stroke" stroke-width="1" stroke="rgb(68,68,68)" stroke-linejoin="miter" stroke-linecap="butt" stroke-miterlimit="4"/><defs><filter id="hm08Ypum5BVL6GqHnh6IpLwaIsCHWG47" x="-200%" y="-200%" width="400%" height="400%" filterUnits="objectBoundingBox" color-interpolation-filters="sRGB"><feGaussianBlur xmlns="http://www.w3.org/2000/svg" in="SourceGraphic" stdDeviation="4"/><feOffset xmlns="http://www.w3.org/2000/svg" dx="0.7071" dy="0.7071" result="pf_100_offsetBlur"/><feFlood xmlns="http://www.w3.org/2000/svg" flood-color="#000000" flood-opacity="0.65"/><feComposite xmlns="http://www.w3.org/2000/svg" in2="pf_100_offsetBlur" operator="in" result="pf_100_dropShadow"/><feBlend xmlns="http://www.w3.org/2000/svg" in="SourceGraphic" in2="pf_100_dropShadow" mode="normal"/></filter></defs><g opacity="0.502" filter="url(#hm08Ypum5BVL6GqHnh6IpLwaIsCHWG47)"><line x1="182.5" y1="134.5" x2="182.5" y2="166.5" vector-effect="non-scaling-stroke" stroke-width="2" stroke="rgb(0,0,0)" stroke-linejoin="miter" stroke-linecap="butt" stroke-miterlimit="4"/></g><line x1="181.5" y1="135.5" x2="181.5" y2="167.5" vector-effect="non-scaling-stroke" stroke-width="1" stroke="rgb(51,51,51)" stroke-linejoin="miter" stroke-linecap="butt" stroke-miterlimit="4"/></g></g></svg>