<?xml version="1.0" standalone="no"?><!-- Generator: Gravit.io --><svg xmlns="http://www.w3.org/2000/svg" xmlns:xlink="http://www.w3.org/1999/xlink" style="isolation:isolate" viewBox="0 0 256 256" width="256" height="256"><defs><clipPath id="_clipPath_UbleRXlPsmR7EziVigsgVPKy5yvLLN8A"><rect width="256" height="256"/></clipPath></defs><g clip-path="url(#_clipPath_UbleRXlPsmR7EziVigsgVPKy5yvLLN8A)"><g><defs><filter id="jtAtrLSReiif67llN0FBtpVkX2ghN4my" x="-200%" y="-200%" width="400%" height="400%" filterUnits="objectBoundingBox" color-interpolation-filters="sRGB"><feGaussianBlur xmlns="http://www.w3.org/2000/svg" in="SourceGraphic" stdDeviation="2.146804531419514"/><feOffset xmlns="http://www.w3.org/2000/svg" dx="2.8284" dy="2.8284" result="pf_100_offsetBlur"/><feFlood xmlns="http://www.w3.org/2000/svg" flood-color="#000000" flood-opacity="0.3"/><feComposite xmlns="http://www.w3.org/2000/svg" in2="pf_100_offsetBlur" operator="in" result="pf_100_dropShadow"/><feBlend xmlns="http://www.w3.org/2000/svg" in="SourceGraphic" in2="pf_100_dropShadow" mode="normal"/></filter></defs><g filter="url(#jtAtrLSReiif67llN0FBtpVkX2ghN4my)"><radialGradient id="_rgradient_0" fx="0.372881" fy="0.26548700000000003" cx="0.372881" cy="0.26548700000000003" r="0.36381100000000005" gradientTransform="matrix(236,0,0,226,10,15)" gradientUnits="userSpaceOnUse"><stop offset="0%" stop-opacity="1" style="stop-color:rgb(153,204,255)"/><stop offset="100%" stop-opacity="1" style="stop-color:rgb(38,38,255)"/></radialGradient><path d=" M 10 128 C 10 65.591 62.83 15 128 15 C 193.17 15 246 65.591 246 128 C 246 190.409 193.17 241 128 241 C 62.83 241 10 190.409 10 128 Z " fill="url(#_rgradient_0)"/></g></g><g><path d=" M 68 48 C 68.12 52.557 71.003 49.127 74.167 51.5 L 76.5 54.5 C 87.205 55.112 101.199 56.618 111.5 52.5 C 110.619 52.28 114.581 50.581 115.5 51.5 L 115.5 54.167 L 115.5 55.5 L 124.5 55.5 L 127.5 53.5 L 137.5 54.5 C 136.842 63.049 137.902 72.118 139.5 80.5 L 135.167 82.833 L 127.5 86.5 L 124 96 C 128.807 98.404 124.099 104.3 119 106 L 108 118 L 90.5 103.5 C 91.158 104.158 85.525 109.323 85.5 109.5 C 84.778 114.555 76.364 111.757 73 114 L 75.5 124.5 L 75.5 125.5 C 47.535 132.029 82 146 103 154 C 104.094 154.417 102.199 179.801 99 183 L 100 198 C 103.49 198.805 127.248 215 121 215 C 116.588 215 107.917 213.349 105 210 L 95.5 214.5 C 95.334 213.172 92.395 213.5 92.167 213.5 C 83.732 213.5 74.034 211.487 65.5 209.5 L 74 207 C 70.596 204.873 69.408 191.211 67 188 C 60.82 179.76 48.5 171.908 48.5 161.5 C 48.5 155.226 44.279 149.614 41.167 144.167 C 40.914 143.725 37.428 137.572 36.5 138.5 C 35.821 128.99 53.842 66.065 62.5 62.5 L 58 44.5 C 58.66 45.16 65.909 38.705 67.5 39.5 L 68 48 L 68 48 Z " fill="rgb(0,217,54)" vector-effect="non-scaling-stroke" stroke-width="5" stroke="rgb(38,255,92)" stroke-linejoin="miter" stroke-linecap="butt" stroke-miterlimit="4"/><radialGradient id="_rgradient_1" fx="0.8466670000000001" fy="0.500377" cx="0.8466670000000001" cy="0.500377" r="0.376049" gradientTransform="matrix(75,0,0,169.128,157.5,41.372)" gradientUnits="userSpaceOnUse"><stop offset="0%" stop-opacity="1" style="stop-color:rgb(191,255,0)"/><stop offset="100%" stop-opacity="1" style="stop-color:rgb(0,217,54)"/></radialGradient><path d=" M 189.5 209.5 C 190.283 210.283 192.25 206.667 192.5 206.5 L 198.5 202.5 C 198.592 202.223 199.129 197.129 200.5 198.5 L 201.5 189.5 L 206.5 184.5 L 208.5 181.5 L 214.5 174.5 C 215.554 175.554 217.446 173.554 218.5 172.5 L 218.5 170.5 C 221.522 167.478 225.399 167.601 228.167 164.833 C 229.732 163.268 229.5 162.41 229.5 160.167 L 228.5 158.5 L 228.5 136.5 C 228.549 135.787 230.977 128.28 231.5 129.5 L 232.5 98.5 L 231.5 98.5 L 229.5 89.5 C 227.674 90.718 231.55 81.748 231.5 81.5 L 221.5 68.5 C 219.026 68.363 216.974 61.237 214.5 60 L 211.5 59 L 206 50.5 C 203.839 51.581 198.458 42.738 196 42 C 186.784 39.235 175.091 46.5 165.5 46.5 C 162.375 46.5 159.5 49.501 160.5 52.5 L 159.5 51.5 L 169.5 60.5 C 169.448 60.656 167.75 71.625 167 70.5 L 157.5 74.5 L 169 85 L 177.5 87 L 186.5 83.5 C 191.5 88.5 184.5 97 190 98.5 L 216.5 90.5 C 218.549 96.647 201.831 100.176 200.5 105.5 C 199.535 109.359 195.445 113.835 196 115.5 L 193 121.5 L 189.5 131 C 188.724 129.447 188.776 145.553 188 144 L 199.5 153.5 L 211.5 160.5 C 214.761 172.472 197.632 189.066 192.5 186.5 L 190.5 210.5 L 189.5 209.5 L 189.5 209.5 Z " fill="url(#_rgradient_1)" vector-effect="non-scaling-stroke" stroke-width="5" stroke="rgb(38,255,92)" stroke-linejoin="miter" stroke-linecap="butt" stroke-miterlimit="4"/><radialGradient id="_rgradient_2" fx="0.522962" fy="0.5" cx="0.522962" cy="0.5" r="0.40606499999999995" gradientTransform="matrix(81.268,0,0,11,85.5,228)" gradientUnits="userSpaceOnUse"><stop offset="0%" stop-opacity="1" style="stop-color:rgb(204,204,204)"/><stop offset="100%" stop-opacity="1" style="stop-color:rgb(255,255,255)"/></radialGradient><path d=" M 98.267 234.393 L 104.802 236.36 L 104.802 236.851 C 120.202 238.276 136.551 239.467 152.175 238.818 L 152.175 238.327 L 156 236.5 C 156.046 236.496 164.735 229.619 166 230 C 169.596 226.837 159.722 232.406 153.809 232.426 C 154.991 232.189 149.156 231.492 148.908 231.442 L 144.008 229.475 L 140.74 228.984 L 126.038 228.984 L 121.954 228 L 112.969 228 L 111.336 229.475 C 108.192 233.261 96.555 230.584 85.5 231 L 95.5 234 L 98.267 234.393 L 98.267 234.393 Z " fill="url(#_rgradient_2)" vector-effect="non-scaling-stroke" stroke-width="3" stroke="rgb(204,204,204)" stroke-linejoin="miter" stroke-linecap="butt" stroke-miterlimit="4"/><radialGradient id="_rgradient_3" fx="0.5" fy="0.545829" cx="0.5" cy="0.545829" r="0.560606" gradientTransform="matrix(66,0,0,12.11,100,18.89)" gradientUnits="userSpaceOnUse"><stop offset="0%" stop-opacity="1" style="stop-color:rgb(204,204,204)"/><stop offset="100%" stop-opacity="1" style="stop-color:rgb(255,255,255)"/></radialGradient><path d=" M 162.733 24.607 L 151 21 L 156.199 22.149 C 140.798 20.724 127.124 18.351 111.5 19 L 108.825 20.673 L 103.107 20.673 C 103.061 20.677 102.739 21.546 101.473 21.165 C 97.878 24.328 101.278 26.594 107.191 26.574 C 106.009 26.811 111.844 27.508 112.092 27.558 L 116.993 29.525 L 120.26 30.017 L 134.962 30.017 L 139.046 31 L 148.031 31 L 149.664 29.525 C 152.808 25.739 154.945 26.99 166 26.574 L 166 26.083 L 162.733 24.607 L 162.733 24.607 Z " fill="url(#_rgradient_3)" vector-effect="non-scaling-stroke" stroke-width="3" stroke="rgb(204,204,204)" stroke-linejoin="miter" stroke-linecap="butt" stroke-miterlimit="4"/></g></g></svg>