<?xml version="1.0" standalone="no"?><!-- Generator: Gravit.io --><svg xmlns="http://www.w3.org/2000/svg" xmlns:xlink="http://www.w3.org/1999/xlink" style="isolation:isolate" viewBox="0 0 256 256" width="256" height="256"><defs><clipPath id="_clipPath_vI37OMN735deS6eDKPZMXjFp5z8MCtEg"><rect width="256" height="256"/></clipPath></defs><g clip-path="url(#_clipPath_vI37OMN735deS6eDKPZMXjFp5z8MCtEg)"><g><g><radialGradient id="_rgradient_12" fx="0.5" fy="0.5" cx="0.5" cy="0.5" r="0.209302" gradientTransform="matrix(43,0,0,22,107,202)" gradientUnits="userSpaceOnUse"><stop offset="0%" stop-opacity="1" style="stop-color:rgb(238,238,238)"/><stop offset="100%" stop-opacity="1" style="stop-color:rgb(187,187,187)"/></radialGradient><path d=" M 107 207.5 C 107 204.462 109.462 202 112.5 202 L 144.5 202 C 147.538 202 150 204.462 150 207.5 L 150 218.5 C 150 221.538 147.538 224 144.5 224 L 112.5 224 C 109.462 224 107 221.538 107 218.5 L 107 207.5 L 107 207.5 Z " fill="url(#_rgradient_12)" vector-effect="non-scaling-stroke" stroke-width="1" stroke="rgb(102,102,102)" stroke-linejoin="miter" stroke-linecap="butt" stroke-miterlimit="4"/></g><g filter="url(#3UdNMMbSoywvJPToI7B2KJw2ogj7r14Y)"><radialGradient id="_rgradient_13" fx="0.5" fy="0.5" cx="0.5" cy="0.5" r="0.5" gradientTransform="matrix(146,0,0,8,55,220)" gradientUnits="userSpaceOnUse"><stop offset="0%" stop-opacity="1" style="stop-color:rgb(238,238,238)"/><stop offset="100%" stop-opacity="1" style="stop-color:rgb(187,187,187)"/></radialGradient><path d=" M 55 222 C 55 220.895 55.895 220 57 220 L 199 220 C 200.105 220 201 220.895 201 222 L 201 226 C 201 227.105 200.105 228 199 228 L 57 228 C 55.895 228 55 227.105 55 226 L 55 222 L 55 222 Z " fill="url(#_rgradient_13)" vector-effect="non-scaling-stroke" stroke-width="1" stroke="rgb(102,102,102)" stroke-linejoin="miter" stroke-linecap="butt" stroke-miterlimit="4"/></g><defs><filter id="3UdNMMbSoywvJPToI7B2KJw2ogj7r14Y" x="-200%" y="-200%" width="400%" height="400%" filterUnits="objectBoundingBox" color-interpolation-filters="sRGB"><feGaussianBlur xmlns="http://www.w3.org/2000/svg" in="SourceGraphic" stdDeviation="4"/><feOffset xmlns="http://www.w3.org/2000/svg" dx="1.4142" dy="1.4142" result="pf_100_offsetBlur"/><feFlood xmlns="http://www.w3.org/2000/svg" flood-color="#000000" flood-opacity="0.65"/><feComposite xmlns="http://www.w3.org/2000/svg" in2="pf_100_offsetBlur" operator="in" result="pf_100_dropShadow"/><feBlend xmlns="http://www.w3.org/2000/svg" in="SourceGraphic" in2="pf_100_dropShadow" mode="normal"/></filter></defs></g><g><g filter="url(#a8XQb0wvi3cMzcF9vIUXV8rpQCThcEC0)"><path d=" M 22 31.25 C 22 21.772 22.772 21 32.25 21 L 223.75 21 C 233.228 21 234 21.772 234 31.25 L 234 197.75 C 234 207.228 233.228 208 223.75 208 L 32.25 208 C 22.772 208 22 207.228 22 197.75 L 22 31.25 L 22 31.25 Z " fill="rgb(236,236,236)" vector-effect="non-scaling-stroke" stroke-width="1" stroke="rgb(68,68,68)" stroke-linejoin="miter" stroke-linecap="butt" stroke-miterlimit="4"/></g><defs><filter id="a8XQb0wvi3cMzcF9vIUXV8rpQCThcEC0" x="-200%" y="-200%" width="400%" height="400%" filterUnits="objectBoundingBox" color-interpolation-filters="sRGB"><feGaussianBlur xmlns="http://www.w3.org/2000/svg" in="SourceGraphic" stdDeviation="4"/><feOffset xmlns="http://www.w3.org/2000/svg" dx="1.4142" dy="1.4142" result="pf_100_offsetBlur"/><feFlood xmlns="http://www.w3.org/2000/svg" flood-color="#000000" flood-opacity="0.65"/><feComposite xmlns="http://www.w3.org/2000/svg" in2="pf_100_offsetBlur" operator="in" result="pf_100_dropShadow"/><feBlend xmlns="http://www.w3.org/2000/svg" in="SourceGraphic" in2="pf_100_dropShadow" mode="normal"/></filter></defs><radialGradient id="_rgradient_14" fx="0.4" fy="0.299999" cx="0.4" cy="0.299999" r="0.32500100000000004" gradientTransform="matrix(8,0,0,8,204,192)" gradientUnits="userSpaceOnUse"><stop offset="0%" stop-opacity="1" style="stop-color:rgb(255,191,191)"/><stop offset="100%" stop-opacity="1" style="stop-color:rgb(255,77,77)"/></radialGradient><path d=" M 204 196 C 204 193.791 205.791 192 208 192 C 210.209 192 212 193.791 212 196 C 212 198.209 210.209 200 208 200 C 205.791 200 204 198.209 204 196 Z " fill="url(#_rgradient_14)" vector-effect="non-scaling-stroke" stroke-width="1" stroke="rgb(187,187,187)" stroke-linejoin="miter" stroke-linecap="butt" stroke-miterlimit="4"/><radialGradient id="_rgradient_15" fx="0.4" fy="0.299999" cx="0.4" cy="0.299999" r="0.32500100000000004" gradientTransform="matrix(8,0,0,8,216,192)" gradientUnits="userSpaceOnUse"><stop offset="0%" stop-opacity="1" style="stop-color:rgb(150,255,115)"/><stop offset="100%" stop-opacity="1" style="stop-color:rgb(45,178,0)"/></radialGradient><path d=" M 216 196 C 216 193.791 217.791 192 220 192 C 222.209 192 224 193.791 224 196 C 224 198.209 222.209 200 220 200 C 217.791 200 216 198.209 216 196 Z " fill="url(#_rgradient_15)" vector-effect="non-scaling-stroke" stroke-width="1" stroke="rgb(187,187,187)" stroke-linejoin="miter" stroke-linecap="butt" stroke-miterlimit="4"/><g><radialGradient id="_rgradient_16" fx="0.268041" fy="0.25" cx="0.268041" cy="0.25" r="0.697888" gradientTransform="matrix(194,0,0,152,32,33)" gradientUnits="userSpaceOnUse"><stop offset="0%" stop-opacity="1" style="stop-color:rgb(102,102,102)"/><stop offset="100%" stop-opacity="1" style="stop-color:rgb(0,0,64)"/></radialGradient><path d=" M 32 36.5 C 32 33.552 32.552 33 35.5 33 L 222.5 33 C 225.448 33 226 33.552 226 36.5 L 226 181.5 C 226 184.448 225.448 185 222.5 185 L 35.5 185 C 32.552 185 32 184.448 32 181.5 L 32 36.5 L 32 36.5 Z " fill="url(#_rgradient_16)" vector-effect="non-scaling-stroke" stroke-width="1" stroke="rgb(136,136,136)" stroke-linejoin="miter" stroke-linecap="butt" stroke-miterlimit="4"/></g></g><g><path d=" M 46.102 41.398 L 46.102 41.398 L 40.969 52.461 L 40.969 52.461 Q 40.773 52.875 40.617 53 L 40.617 53 L 40.617 53 Q 40.414 53.164 40.125 53.164 L 40.125 53.164 L 40.125 53.164 Q 39.797 53.164 39.559 52.93 L 39.559 52.93 L 39.559 52.93 Q 39.32 52.695 39.32 52.398 L 39.32 52.398 L 39.32 52.398 Q 39.32 52.188 39.508 51.781 L 39.508 51.781 L 44.656 40.727 L 44.656 40.727 Q 44.852 40.313 45 40.188 L 45 40.188 L 45 40.188 Q 45.211 40.023 45.492 40.023 L 45.492 40.023 L 45.492 40.023 Q 45.82 40.023 46.055 40.254 L 46.055 40.254 L 46.055 40.254 Q 46.289 40.484 46.289 40.781 L 46.289 40.781 L 46.289 40.781 Q 46.289 40.992 46.102 41.398 Z  M 53.586 51.32 L 52.414 48.367 L 51.305 51.32 L 49.797 51.32 L 48.453 45.828 L 48.453 45.828 Q 48.016 45.805 47.793 45.582 L 47.793 45.582 L 47.793 45.582 Q 47.57 45.359 47.57 45.023 L 47.57 45.023 L 47.57 45.023 Q 47.57 44.672 47.816 44.449 L 47.816 44.449 L 47.816 44.449 Q 48.063 44.227 48.641 44.227 L 48.641 44.227 L 50.133 44.227 L 50.133 44.227 Q 50.711 44.227 50.957 44.449 L 50.957 44.449 L 50.957 44.449 Q 51.203 44.672 51.203 45.031 L 51.203 45.031 L 51.203 45.031 Q 51.203 45.391 50.922 45.641 L 50.922 45.641 L 50.922 45.641 Q 50.711 45.828 50.094 45.828 L 50.094 45.828 L 50.703 48.367 L 51.695 45.766 L 53.117 45.766 L 54.117 48.367 L 54.742 45.828 L 54.742 45.828 Q 54.148 45.828 53.961 45.711 L 53.961 45.711 L 53.961 45.711 Q 53.586 45.469 53.586 45.023 L 53.586 45.023 L 53.586 45.023 Q 53.586 44.672 53.832 44.449 L 53.832 44.449 L 53.832 44.449 Q 54.078 44.227 54.656 44.227 L 54.656 44.227 L 56.164 44.227 L 56.164 44.227 Q 56.742 44.227 56.988 44.449 L 56.988 44.449 L 56.988 44.449 Q 57.234 44.672 57.234 45.031 L 57.234 45.031 L 57.234 45.031 Q 57.234 45.352 57.02 45.574 L 57.02 45.574 L 57.02 45.574 Q 56.805 45.797 56.383 45.828 L 56.383 45.828 L 55.07 51.32 L 53.586 51.32 L 53.586 51.32 Z  M 59.492 44.227 L 61.672 44.227 L 61.672 45.227 L 61.672 45.227 Q 62.68 44.5 63.262 44.258 L 63.262 44.258 L 63.262 44.258 Q 63.844 44.016 64.352 44.016 L 64.352 44.016 L 64.352 44.016 Q 65.133 44.016 65.867 44.594 L 65.867 44.594 L 65.867 44.594 Q 66.367 44.984 66.367 45.391 L 66.367 45.391 L 66.367 45.391 Q 66.367 45.734 66.129 45.973 L 66.129 45.973 L 66.129 45.973 Q 65.891 46.211 65.555 46.211 L 65.555 46.211 L 65.555 46.211 Q 65.258 46.211 64.93 45.914 L 64.93 45.914 L 64.93 45.914 Q 64.602 45.617 64.344 45.617 L 64.344 45.617 L 64.344 45.617 Q 64.008 45.617 63.34 46.039 L 63.34 46.039 L 63.34 46.039 Q 62.672 46.461 61.672 47.305 L 61.672 47.305 L 61.672 49.719 L 63.953 49.719 L 63.953 49.719 Q 64.531 49.719 64.777 49.941 L 64.777 49.941 L 64.777 49.941 Q 65.023 50.164 65.023 50.523 L 65.023 50.523 L 65.023 50.523 Q 65.023 50.875 64.777 51.098 L 64.777 51.098 L 64.777 51.098 Q 64.531 51.32 63.953 51.32 L 63.953 51.32 L 59.117 51.32 L 59.117 51.32 Q 58.539 51.32 58.293 51.098 L 58.293 51.098 L 58.293 51.098 Q 58.047 50.875 58.047 50.516 L 58.047 50.516 L 58.047 50.516 Q 58.047 50.164 58.293 49.941 L 58.293 49.941 L 58.293 49.941 Q 58.539 49.719 59.117 49.719 L 59.117 49.719 L 60.07 49.719 L 60.07 45.828 L 59.492 45.828 L 59.492 45.828 Q 58.914 45.828 58.668 45.605 L 58.668 45.605 L 58.668 45.605 Q 58.422 45.383 58.422 45.023 L 58.422 45.023 L 58.422 45.023 Q 58.422 44.672 58.668 44.449 L 58.668 44.449 L 58.668 44.449 Q 58.914 44.227 59.492 44.227 L 59.492 44.227 L 59.492 44.227 Z  M 69.516 41.188 L 72.406 41.188 L 72.406 49.719 L 74.328 49.719 L 74.328 49.719 Q 74.906 49.719 75.152 49.941 L 75.152 49.941 L 75.152 49.941 Q 75.398 50.164 75.398 50.523 L 75.398 50.523 L 75.398 50.523 Q 75.398 50.875 75.152 51.098 L 75.152 51.098 L 75.152 51.098 Q 74.906 51.32 74.328 51.32 L 74.328 51.32 L 68.883 51.32 L 68.883 51.32 Q 68.305 51.32 68.059 51.098 L 68.059 51.098 L 68.059 51.098 Q 67.813 50.875 67.813 50.516 L 67.813 50.516 L 67.813 50.516 Q 67.813 50.164 68.059 49.941 L 68.059 49.941 L 68.059 49.941 Q 68.305 49.719 68.883 49.719 L 68.883 49.719 L 70.805 49.719 L 70.805 42.789 L 69.516 42.789 L 69.516 42.789 Q 68.945 42.789 68.695 42.566 L 68.695 42.566 L 68.695 42.566 Q 68.445 42.344 68.445 41.984 L 68.445 41.984 L 68.445 41.984 Q 68.445 41.633 68.691 41.41 L 68.691 41.41 L 68.691 41.41 Q 68.938 41.188 69.516 41.188 L 69.516 41.188 L 69.516 41.188 Z  M 83.008 41.188 L 84.883 41.188 L 84.883 49.719 L 85.156 49.719 L 85.156 49.719 Q 85.727 49.719 85.977 49.941 L 85.977 49.941 L 85.977 49.941 Q 86.227 50.164 86.227 50.523 L 86.227 50.523 L 86.227 50.523 Q 86.227 50.875 85.98 51.098 L 85.98 51.098 L 85.98 51.098 Q 85.734 51.32 85.156 51.32 L 85.156 51.32 L 83.281 51.32 L 83.281 50.93 L 83.281 50.93 Q 82.734 51.25 82.137 51.414 L 82.137 51.414 L 82.137 51.414 Q 81.539 51.578 80.898 51.578 L 80.898 51.578 L 80.898 51.578 Q 79.094 51.578 77.992 50.535 L 77.992 50.535 L 77.992 50.535 Q 76.891 49.492 76.891 47.938 L 76.891 47.938 L 76.891 47.938 Q 76.891 46.313 78.047 45.164 L 78.047 45.164 L 78.047 45.164 Q 79.203 44.016 80.867 44.016 L 80.867 44.016 L 80.867 44.016 Q 81.492 44.016 82.094 44.207 L 82.094 44.207 L 82.094 44.207 Q 82.695 44.398 83.281 44.781 L 83.281 44.781 L 83.281 42.789 L 83.008 42.789 L 83.008 42.789 Q 82.43 42.789 82.184 42.566 L 82.184 42.566 L 82.184 42.566 Q 81.938 42.344 81.938 41.992 L 81.938 41.992 L 81.938 41.992 Q 81.938 41.633 82.184 41.41 L 82.184 41.41 L 82.184 41.41 Q 82.43 41.188 83.008 41.188 L 83.008 41.188 L 83.008 41.188 Z  M 83.281 47.984 L 83.281 47.984 L 83.281 47.984 Q 83.281 46.992 82.586 46.305 L 82.586 46.305 L 82.586 46.305 Q 81.891 45.617 80.883 45.617 L 80.883 45.617 L 80.883 45.617 Q 79.883 45.617 79.188 46.305 L 79.188 46.305 L 79.188 46.305 Q 78.492 46.992 78.492 47.961 L 78.492 47.961 L 78.492 47.961 Q 78.492 48.844 79.117 49.41 L 79.117 49.41 L 79.117 49.41 Q 79.742 49.977 80.883 49.977 L 80.883 49.977 L 80.883 49.977 Q 82.016 49.977 82.648 49.41 L 82.648 49.41 L 82.648 49.41 Q 83.281 48.844 83.281 47.984 Z  M 94.109 41.398 L 94.109 41.398 L 88.977 52.461 L 88.977 52.461 Q 88.781 52.875 88.625 53 L 88.625 53 L 88.625 53 Q 88.422 53.164 88.133 53.164 L 88.133 53.164 L 88.133 53.164 Q 87.805 53.164 87.566 52.93 L 87.566 52.93 L 87.566 52.93 Q 87.328 52.695 87.328 52.398 L 87.328 52.398 L 87.328 52.398 Q 87.328 52.188 87.516 51.781 L 87.516 51.781 L 92.664 40.727 L 92.664 40.727 Q 92.859 40.313 93.008 40.188 L 93.008 40.188 L 93.008 40.188 Q 93.219 40.023 93.5 40.023 L 93.5 40.023 L 93.5 40.023 Q 93.828 40.023 94.063 40.254 L 94.063 40.254 L 94.063 40.254 Q 94.297 40.484 94.297 40.781 L 94.297 40.781 L 94.297 40.781 Q 94.297 40.992 94.109 41.398 Z  M 101.633 44.227 L 103.813 44.227 L 103.813 49.719 L 103.813 49.719 Q 104.32 49.719 104.563 49.945 L 104.563 49.945 L 104.563 49.945 Q 104.805 50.172 104.805 50.523 L 104.805 50.523 L 104.805 50.523 Q 104.805 50.875 104.559 51.098 L 104.559 51.098 L 104.559 51.098 Q 104.313 51.32 103.734 51.32 L 103.734 51.32 L 102.211 51.32 L 102.211 50.953 L 102.211 50.953 Q 101.523 51.266 100.898 51.422 L 100.898 51.422 L 100.898 51.422 Q 100.273 51.578 99.711 51.578 L 99.711 51.578 L 99.711 51.578 Q 98.922 51.578 98.344 51.246 L 98.344 51.246 L 98.344 51.246 Q 97.766 50.914 97.43 50.328 L 97.43 50.328 L 97.43 50.328 Q 97.188 49.906 97.188 49.273 L 97.188 49.273 L 97.188 45.828 L 96.914 45.828 L 96.914 45.828 Q 96.336 45.828 96.09 45.605 L 96.09 45.605 L 96.09 45.605 Q 95.844 45.383 95.844 45.023 L 95.844 45.023 L 95.844 45.023 Q 95.844 44.672 96.09 44.449 L 96.09 44.449 L 96.09 44.449 Q 96.336 44.227 96.914 44.227 L 96.914 44.227 L 98.789 44.227 L 98.789 48.992 L 98.789 48.992 Q 98.789 49.5 99.035 49.738 L 99.035 49.738 L 99.035 49.738 Q 99.281 49.977 99.789 49.977 L 99.789 49.977 L 99.789 49.977 Q 100.273 49.977 100.832 49.785 L 100.832 49.785 L 100.832 49.785 Q 101.391 49.594 102.211 49.094 L 102.211 49.094 L 102.211 45.828 L 101.633 45.828 L 101.633 45.828 Q 101.055 45.828 100.809 45.605 L 100.809 45.605 L 100.809 45.605 Q 100.563 45.383 100.563 45.023 L 100.563 45.023 L 100.563 45.023 Q 100.563 44.672 100.809 44.449 L 100.809 44.449 L 100.809 44.449 Q 101.055 44.227 101.633 44.227 L 101.633 44.227 L 101.633 44.227 Z  M 111.742 46.102 L 111.742 46.102 L 111.742 46.102 Q 111.352 45.859 110.922 45.738 L 110.922 45.738 L 110.922 45.738 Q 110.492 45.617 110.023 45.617 L 110.023 45.617 L 110.023 45.617 Q 109.094 45.617 108.547 45.922 L 108.547 45.922 L 108.547 45.922 Q 108.305 46.055 108.305 46.211 L 108.305 46.211 L 108.305 46.211 Q 108.305 46.391 108.633 46.563 L 108.633 46.563 L 108.633 46.563 Q 108.883 46.688 109.75 46.805 L 109.75 46.805 L 109.75 46.805 Q 111.344 47.023 111.969 47.242 L 111.969 47.242 L 111.969 47.242 Q 112.789 47.531 113.234 48.102 L 113.234 48.102 L 113.234 48.102 Q 113.68 48.672 113.68 49.305 L 113.68 49.305 L 113.68 49.305 Q 113.68 50.164 112.922 50.742 L 112.922 50.742 L 112.922 50.742 Q 111.836 51.578 110.102 51.578 L 110.102 51.578 L 110.102 51.578 Q 109.406 51.578 108.816 51.457 L 108.816 51.457 L 108.816 51.457 Q 108.227 51.336 107.734 51.102 L 107.734 51.102 L 107.734 51.102 Q 107.617 51.203 107.484 51.258 L 107.484 51.258 L 107.484 51.258 Q 107.352 51.313 107.211 51.313 L 107.211 51.313 L 107.211 51.313 Q 106.836 51.313 106.613 51.066 L 106.613 51.066 L 106.613 51.066 Q 106.391 50.82 106.391 50.242 L 106.391 50.242 L 106.391 49.703 L 106.391 49.703 Q 106.391 49.125 106.613 48.879 L 106.613 48.879 L 106.613 48.879 Q 106.836 48.633 107.195 48.633 L 107.195 48.633 L 107.195 48.633 Q 107.484 48.633 107.68 48.793 L 107.68 48.793 L 107.68 48.793 Q 107.875 48.953 107.984 49.344 L 107.984 49.344 L 107.984 49.344 Q 108.352 49.656 108.867 49.816 L 108.867 49.816 L 108.867 49.816 Q 109.383 49.977 110.055 49.977 L 110.055 49.977 L 110.055 49.977 Q 111.156 49.977 111.766 49.633 L 111.766 49.633 L 111.766 49.633 Q 112.055 49.461 112.055 49.273 L 112.055 49.273 L 112.055 49.273 Q 112.055 48.961 111.641 48.758 L 111.641 48.758 L 111.641 48.758 Q 111.227 48.555 109.93 48.414 L 109.93 48.414 L 109.93 48.414 Q 108 48.211 107.352 47.633 L 107.352 47.633 L 107.352 47.633 Q 106.703 47.063 106.703 46.227 L 106.703 46.227 L 106.703 46.227 Q 106.703 45.367 107.43 44.797 L 107.43 44.797 L 107.43 44.797 Q 108.414 44.016 110.008 44.016 L 110.008 44.016 L 110.008 44.016 Q 110.563 44.016 111.074 44.121 L 111.074 44.121 L 111.074 44.121 Q 111.586 44.227 112.055 44.445 L 112.055 44.445 L 112.055 44.445 Q 112.203 44.336 112.332 44.281 L 112.332 44.281 L 112.332 44.281 Q 112.461 44.227 112.57 44.227 L 112.57 44.227 L 112.57 44.227 Q 112.898 44.227 113.117 44.473 L 113.117 44.473 L 113.117 44.473 Q 113.336 44.719 113.336 45.297 L 113.336 45.297 L 113.336 45.688 L 113.336 45.688 Q 113.336 46.211 113.211 46.398 L 113.211 46.398 L 113.211 46.398 Q 112.961 46.758 112.531 46.758 L 112.531 46.758 L 112.531 46.758 Q 112.242 46.758 112.023 46.578 L 112.023 46.578 L 112.023 46.578 Q 111.805 46.398 111.742 46.102 Z  M 122.914 41.398 L 122.914 41.398 L 117.781 52.461 L 117.781 52.461 Q 117.586 52.875 117.43 53 L 117.43 53 L 117.43 53 Q 117.227 53.164 116.938 53.164 L 116.938 53.164 L 116.938 53.164 Q 116.609 53.164 116.371 52.93 L 116.371 52.93 L 116.371 52.93 Q 116.133 52.695 116.133 52.398 L 116.133 52.398 L 116.133 52.398 Q 116.133 52.188 116.32 51.781 L 116.32 51.781 L 121.469 40.727 L 121.469 40.727 Q 121.664 40.313 121.813 40.188 L 121.813 40.188 L 121.813 40.188 Q 122.023 40.023 122.305 40.023 L 122.305 40.023 L 122.305 40.023 Q 122.633 40.023 122.867 40.254 L 122.867 40.254 L 122.867 40.254 Q 123.102 40.484 123.102 40.781 L 123.102 40.781 L 123.102 40.781 Q 123.102 40.992 122.914 41.398 Z  M 133.234 47.906 L 133.234 48.586 L 126.664 48.586 L 126.664 48.586 Q 126.914 49.211 127.551 49.594 L 127.551 49.594 L 127.551 49.594 Q 128.188 49.977 129.273 49.977 L 129.273 49.977 L 129.273 49.977 Q 130.164 49.977 131.641 49.594 L 131.641 49.594 L 131.641 49.594 Q 132.25 49.438 132.484 49.438 L 132.484 49.438 L 132.484 49.438 Q 132.805 49.438 133.023 49.664 L 133.023 49.664 L 133.023 49.664 Q 133.242 49.891 133.242 50.234 L 133.242 50.234 L 133.242 50.234 Q 133.242 50.547 133.008 50.766 L 133.008 50.766 L 133.008 50.766 Q 132.695 51.055 131.484 51.316 L 131.484 51.316 L 131.484 51.316 Q 130.273 51.578 129.156 51.578 L 129.156 51.578 L 129.156 51.578 Q 127.234 51.578 126.082 50.492 L 126.082 50.492 L 126.082 50.492 Q 124.93 49.406 124.93 47.82 L 124.93 47.82 L 124.93 47.82 Q 124.93 46.133 126.176 45.074 L 126.176 45.074 L 126.176 45.074 Q 127.422 44.016 129.047 44.016 L 129.047 44.016 L 129.047 44.016 Q 130.023 44.016 130.84 44.359 L 130.84 44.359 L 130.84 44.359 Q 131.656 44.703 132.055 45.102 L 132.055 45.102 L 132.055 45.102 Q 132.617 45.68 132.984 46.531 L 132.984 46.531 L 132.984 46.531 Q 133.234 47.125 133.234 47.906 L 133.234 47.906 L 133.234 47.906 Z  M 126.711 46.984 L 131.461 46.984 L 131.461 46.984 Q 131.094 46.297 130.5 45.957 L 130.5 45.957 L 130.5 45.957 Q 129.906 45.617 129.086 45.617 L 129.086 45.617 L 129.086 45.617 Q 128.273 45.617 127.68 45.957 L 127.68 45.957 L 127.68 45.957 Q 127.086 46.297 126.711 46.984 L 126.711 46.984 L 126.711 46.984 Z  M 142.133 51.32 L 140.258 51.32 L 140.258 50.945 L 140.258 50.945 Q 139.656 51.266 138.93 51.426 L 138.93 51.426 L 138.93 51.426 Q 138.203 51.586 137.609 51.586 L 137.609 51.586 L 137.609 51.586 Q 136.32 51.586 135.516 50.902 L 135.516 50.902 L 135.516 50.902 Q 134.711 50.219 134.711 49.391 L 134.711 49.391 L 134.711 49.391 Q 134.711 48.383 135.738 47.52 L 135.738 47.52 L 135.738 47.52 Q 136.766 46.656 138.578 46.656 L 138.578 46.656 L 138.578 46.656 Q 139.305 46.656 140.258 46.813 L 140.258 46.813 L 140.258 46.43 L 140.258 46.43 Q 140.258 46.07 139.949 45.844 L 139.949 45.844 L 139.949 45.844 Q 139.641 45.617 138.773 45.617 L 138.773 45.617 L 138.773 45.617 Q 138.063 45.617 136.93 45.898 L 136.93 45.898 L 136.93 45.898 Q 136.508 46 136.273 46 L 136.273 46 L 136.273 46 Q 135.953 46 135.73 45.77 L 135.73 45.77 L 135.73 45.77 Q 135.508 45.539 135.508 45.18 L 135.508 45.18 L 135.508 45.18 Q 135.508 44.977 135.586 44.828 L 135.586 44.828 L 135.586 44.828 Q 135.664 44.68 135.805 44.59 L 135.805 44.59 L 135.805 44.59 Q 135.945 44.5 136.391 44.375 L 136.391 44.375 L 136.391 44.375 Q 136.984 44.211 137.602 44.113 L 137.602 44.113 L 137.602 44.113 Q 138.219 44.016 138.719 44.016 L 138.719 44.016 L 138.719 44.016 Q 140.211 44.016 141.035 44.66 L 141.035 44.66 L 141.035 44.66 Q 141.859 45.305 141.859 46.422 L 141.859 46.422 L 141.859 49.719 L 142.133 49.719 L 142.133 49.719 Q 142.711 49.719 142.957 49.941 L 142.957 49.941 L 142.957 49.941 Q 143.203 50.164 143.203 50.523 L 143.203 50.523 L 143.203 50.523 Q 143.203 50.875 142.957 51.098 L 142.957 51.098 L 142.957 51.098 Q 142.711 51.32 142.133 51.32 L 142.133 51.32 L 142.133 51.32 Z  M 140.258 49.141 L 140.258 48.453 L 140.258 48.453 Q 139.297 48.266 138.484 48.266 L 138.484 48.266 L 138.484 48.266 Q 137.508 48.266 136.805 48.742 L 136.805 48.742 L 136.805 48.742 Q 136.367 49.047 136.367 49.359 L 136.367 49.359 L 136.367 49.359 Q 136.367 49.586 136.578 49.727 L 136.578 49.727 L 136.578 49.727 Q 136.969 49.984 137.648 49.984 L 137.648 49.984 L 137.648 49.984 Q 138.227 49.984 138.957 49.758 L 138.957 49.758 L 138.957 49.758 Q 139.688 49.531 140.258 49.141 L 140.258 49.141 L 140.258 49.141 Z  M 150.148 46.102 L 150.148 46.102 L 150.148 46.102 Q 149.758 45.859 149.328 45.738 L 149.328 45.738 L 149.328 45.738 Q 148.898 45.617 148.43 45.617 L 148.43 45.617 L 148.43 45.617 Q 147.5 45.617 146.953 45.922 L 146.953 45.922 L 146.953 45.922 Q 146.711 46.055 146.711 46.211 L 146.711 46.211 L 146.711 46.211 Q 146.711 46.391 147.039 46.563 L 147.039 46.563 L 147.039 46.563 Q 147.289 46.688 148.156 46.805 L 148.156 46.805 L 148.156 46.805 Q 149.75 47.023 150.375 47.242 L 150.375 47.242 L 150.375 47.242 Q 151.195 47.531 151.641 48.102 L 151.641 48.102 L 151.641 48.102 Q 152.086 48.672 152.086 49.305 L 152.086 49.305 L 152.086 49.305 Q 152.086 50.164 151.328 50.742 L 151.328 50.742 L 151.328 50.742 Q 150.242 51.578 148.508 51.578 L 148.508 51.578 L 148.508 51.578 Q 147.813 51.578 147.223 51.457 L 147.223 51.457 L 147.223 51.457 Q 146.633 51.336 146.141 51.102 L 146.141 51.102 L 146.141 51.102 Q 146.023 51.203 145.891 51.258 L 145.891 51.258 L 145.891 51.258 Q 145.758 51.313 145.617 51.313 L 145.617 51.313 L 145.617 51.313 Q 145.242 51.313 145.02 51.066 L 145.02 51.066 L 145.02 51.066 Q 144.797 50.82 144.797 50.242 L 144.797 50.242 L 144.797 49.703 L 144.797 49.703 Q 144.797 49.125 145.02 48.879 L 145.02 48.879 L 145.02 48.879 Q 145.242 48.633 145.602 48.633 L 145.602 48.633 L 145.602 48.633 Q 145.891 48.633 146.086 48.793 L 146.086 48.793 L 146.086 48.793 Q 146.281 48.953 146.391 49.344 L 146.391 49.344 L 146.391 49.344 Q 146.758 49.656 147.273 49.816 L 147.273 49.816 L 147.273 49.816 Q 147.789 49.977 148.461 49.977 L 148.461 49.977 L 148.461 49.977 Q 149.563 49.977 150.172 49.633 L 150.172 49.633 L 150.172 49.633 Q 150.461 49.461 150.461 49.273 L 150.461 49.273 L 150.461 49.273 Q 150.461 48.961 150.047 48.758 L 150.047 48.758 L 150.047 48.758 Q 149.633 48.555 148.336 48.414 L 148.336 48.414 L 148.336 48.414 Q 146.406 48.211 145.758 47.633 L 145.758 47.633 L 145.758 47.633 Q 145.109 47.063 145.109 46.227 L 145.109 46.227 L 145.109 46.227 Q 145.109 45.367 145.836 44.797 L 145.836 44.797 L 145.836 44.797 Q 146.82 44.016 148.414 44.016 L 148.414 44.016 L 148.414 44.016 Q 148.969 44.016 149.48 44.121 L 149.48 44.121 L 149.48 44.121 Q 149.992 44.227 150.461 44.445 L 150.461 44.445 L 150.461 44.445 Q 150.609 44.336 150.738 44.281 L 150.738 44.281 L 150.738 44.281 Q 150.867 44.227 150.977 44.227 L 150.977 44.227 L 150.977 44.227 Q 151.305 44.227 151.523 44.473 L 151.523 44.473 L 151.523 44.473 Q 151.742 44.719 151.742 45.297 L 151.742 45.297 L 151.742 45.688 L 151.742 45.688 Q 151.742 46.211 151.617 46.398 L 151.617 46.398 L 151.617 46.398 Q 151.367 46.758 150.938 46.758 L 150.938 46.758 L 150.938 46.758 Q 150.648 46.758 150.43 46.578 L 150.43 46.578 L 150.43 46.578 Q 150.211 46.398 150.148 46.102 Z  M 160.586 45.828 L 157.625 45.828 L 157.625 49.039 L 157.625 49.039 Q 157.625 49.555 157.836 49.719 L 157.836 49.719 L 157.836 49.719 Q 158.164 49.977 159.008 49.977 L 159.008 49.977 L 159.008 49.977 Q 160.234 49.977 161.273 49.453 L 161.273 49.453 L 161.273 49.453 Q 161.672 49.25 161.898 49.25 L 161.898 49.25 L 161.898 49.25 Q 162.211 49.25 162.441 49.484 L 162.441 49.484 L 162.441 49.484 Q 162.672 49.719 162.672 50.055 L 162.672 50.055 L 162.672 50.055 Q 162.672 50.367 162.422 50.594 L 162.422 50.594 L 162.422 50.594 Q 162.039 50.961 160.91 51.27 L 160.91 51.27 L 160.91 51.27 Q 159.781 51.578 159.008 51.578 L 159.008 51.578 L 159.008 51.578 Q 157.516 51.578 156.77 50.934 L 156.77 50.934 L 156.77 50.934 Q 156.023 50.289 156.023 49.352 L 156.023 49.352 L 156.023 45.828 L 155.445 45.828 L 155.445 45.828 Q 154.867 45.828 154.621 45.605 L 154.621 45.605 L 154.621 45.605 Q 154.375 45.383 154.375 45.023 L 154.375 45.023 L 154.375 45.023 Q 154.375 44.672 154.621 44.449 L 154.621 44.449 L 154.621 44.449 Q 154.867 44.227 155.445 44.227 L 155.445 44.227 L 156.023 44.227 L 156.023 42.781 L 156.023 42.781 Q 156.023 42.203 156.246 41.957 L 156.246 41.957 L 156.246 41.957 Q 156.469 41.711 156.828 41.711 L 156.828 41.711 L 156.828 41.711 Q 157.18 41.711 157.402 41.957 L 157.402 41.957 L 157.402 41.957 Q 157.625 42.203 157.625 42.781 L 157.625 42.781 L 157.625 44.227 L 160.586 44.227 L 160.586 44.227 Q 161.164 44.227 161.41 44.449 L 161.41 44.449 L 161.41 44.449 Q 161.656 44.672 161.656 45.031 L 161.656 45.031 L 161.656 45.031 Q 161.656 45.383 161.41 45.605 L 161.41 45.605 L 161.41 45.605 Q 161.164 45.828 160.586 45.828 L 160.586 45.828 L 160.586 45.828 Z  M 164.125 49.633 L 169.313 46.758 L 164.125 43.883 L 164.125 43.883 Q 163.734 43.664 163.605 43.492 L 163.605 43.492 L 163.605 43.492 Q 163.477 43.32 163.477 43.055 L 163.477 43.055 L 163.477 43.055 Q 163.477 42.719 163.719 42.477 L 163.719 42.477 L 163.719 42.477 Q 163.961 42.234 164.289 42.234 L 164.289 42.234 L 164.289 42.234 Q 164.492 42.234 164.914 42.461 L 164.914 42.461 L 172.641 46.758 L 164.914 51.055 L 164.914 51.055 Q 164.492 51.289 164.289 51.289 L 164.289 51.289 L 164.289 51.289 Q 163.961 51.289 163.719 51.047 L 163.719 51.047 L 163.719 51.047 Q 163.477 50.805 163.477 50.461 L 163.477 50.461 L 163.477 50.461 Q 163.477 50.195 163.605 50.023 L 163.605 50.023 L 163.605 50.023 Q 163.734 49.852 164.125 49.633 L 164.125 49.633 L 164.125 49.633 Z  M 179.719 44.516 L 179.719 44.516 L 179.719 44.516 Q 180.008 44.242 180.313 44.242 L 180.313 44.242 L 180.313 44.242 Q 180.656 44.242 180.879 44.488 L 180.879 44.488 L 180.879 44.488 Q 181.102 44.734 181.102 45.305 L 181.102 45.305 L 181.102 46.336 L 181.102 46.336 Q 181.102 46.914 180.879 47.156 L 180.879 47.156 L 180.879 47.156 Q 180.656 47.398 180.297 47.398 L 180.297 47.398 L 180.297 47.398 Q 179.969 47.398 179.742 47.211 L 179.742 47.211 L 179.742 47.211 Q 179.578 47.07 179.484 46.637 L 179.484 46.637 L 179.484 46.637 Q 179.391 46.203 179.031 45.992 L 179.031 45.992 L 179.031 45.992 Q 178.398 45.617 177.414 45.617 L 177.414 45.617 L 177.414 45.617 Q 176.281 45.617 175.598 46.281 L 175.598 46.281 L 175.598 46.281 Q 174.914 46.945 174.914 47.961 L 174.914 47.961 L 174.914 47.961 Q 174.914 48.898 175.57 49.441 L 175.57 49.441 L 175.57 49.441 Q 176.227 49.984 177.75 49.984 L 177.75 49.984 L 177.75 49.984 Q 178.75 49.984 179.383 49.781 L 179.383 49.781 L 179.383 49.781 Q 179.758 49.656 180.094 49.355 L 180.094 49.355 L 180.094 49.355 Q 180.43 49.055 180.703 49.055 L 180.703 49.055 L 180.703 49.055 Q 181.031 49.055 181.27 49.297 L 181.27 49.297 L 181.27 49.297 Q 181.508 49.539 181.508 49.867 L 181.508 49.867 L 181.508 49.867 Q 181.508 50.398 180.781 50.875 L 180.781 50.875 L 180.781 50.875 Q 179.703 51.586 177.625 51.586 L 177.625 51.586 L 177.625 51.586 Q 175.758 51.586 174.719 50.813 L 174.719 50.813 L 174.719 50.813 Q 173.313 49.773 173.313 47.969 L 173.313 47.969 L 173.313 47.969 Q 173.313 46.258 174.453 45.137 L 174.453 45.137 L 174.453 45.137 Q 175.594 44.016 177.43 44.016 L 177.43 44.016 L 177.43 44.016 Q 178.094 44.016 178.664 44.141 L 178.664 44.141 L 178.664 44.141 Q 179.234 44.266 179.719 44.516 Z  M 188.625 41.188 L 190.5 41.188 L 190.5 49.719 L 190.773 49.719 L 190.773 49.719 Q 191.344 49.719 191.594 49.941 L 191.594 49.941 L 191.594 49.941 Q 191.844 50.164 191.844 50.523 L 191.844 50.523 L 191.844 50.523 Q 191.844 50.875 191.598 51.098 L 191.598 51.098 L 191.598 51.098 Q 191.352 51.32 190.773 51.32 L 190.773 51.32 L 188.898 51.32 L 188.898 50.93 L 188.898 50.93 Q 188.352 51.25 187.754 51.414 L 187.754 51.414 L 187.754 51.414 Q 187.156 51.578 186.516 51.578 L 186.516 51.578 L 186.516 51.578 Q 184.711 51.578 183.609 50.535 L 183.609 50.535 L 183.609 50.535 Q 182.508 49.492 182.508 47.938 L 182.508 47.938 L 182.508 47.938 Q 182.508 46.313 183.664 45.164 L 183.664 45.164 L 183.664 45.164 Q 184.82 44.016 186.484 44.016 L 186.484 44.016 L 186.484 44.016 Q 187.109 44.016 187.711 44.207 L 187.711 44.207 L 187.711 44.207 Q 188.313 44.398 188.898 44.781 L 188.898 44.781 L 188.898 42.789 L 188.625 42.789 L 188.625 42.789 Q 188.047 42.789 187.801 42.566 L 187.801 42.566 L 187.801 42.566 Q 187.555 42.344 187.555 41.992 L 187.555 41.992 L 187.555 41.992 Q 187.555 41.633 187.801 41.41 L 187.801 41.41 L 187.801 41.41 Q 188.047 41.188 188.625 41.188 L 188.625 41.188 L 188.625 41.188 Z  M 188.898 47.984 L 188.898 47.984 L 188.898 47.984 Q 188.898 46.992 188.203 46.305 L 188.203 46.305 L 188.203 46.305 Q 187.508 45.617 186.5 45.617 L 186.5 45.617 L 186.5 45.617 Q 185.5 45.617 184.805 46.305 L 184.805 46.305 L 184.805 46.305 Q 184.109 46.992 184.109 47.961 L 184.109 47.961 L 184.109 47.961 Q 184.109 48.844 184.734 49.41 L 184.734 49.41 L 184.734 49.41 Q 185.359 49.977 186.5 49.977 L 186.5 49.977 L 186.5 49.977 Q 187.633 49.977 188.266 49.41 L 188.266 49.41 L 188.266 49.41 Q 188.898 48.844 188.898 47.984 Z  M 197.648 50.516 L 197.648 50.516 L 197.648 50.516 Q 197.648 50.969 197.328 51.273 L 197.328 51.273 L 197.328 51.273 Q 197.008 51.578 196.445 51.578 L 196.445 51.578 L 196.445 51.578 Q 195.883 51.578 195.563 51.273 L 195.563 51.273 L 195.563 51.273 Q 195.242 50.969 195.242 50.516 L 195.242 50.516 L 195.242 50.516 Q 195.242 50.063 195.563 49.758 L 195.563 49.758 L 195.563 49.758 Q 195.883 49.453 196.445 49.453 L 196.445 49.453 L 196.445 49.453 Q 197.008 49.453 197.328 49.758 L 197.328 49.758 L 197.328 49.758 Q 197.648 50.063 197.648 50.516 Z  M 207.25 50.516 L 207.25 50.516 L 207.25 50.516 Q 207.25 50.969 206.93 51.273 L 206.93 51.273 L 206.93 51.273 Q 206.609 51.578 206.047 51.578 L 206.047 51.578 L 206.047 51.578 Q 205.484 51.578 205.164 51.273 L 205.164 51.273 L 205.164 51.273 Q 204.844 50.969 204.844 50.516 L 204.844 50.516 L 204.844 50.516 Q 204.844 50.063 205.164 49.758 L 205.164 49.758 L 205.164 49.758 Q 205.484 49.453 206.047 49.453 L 206.047 49.453 L 206.047 49.453 Q 206.609 49.453 206.93 49.758 L 206.93 49.758 L 206.93 49.758 Q 207.25 50.063 207.25 50.516 Z  M 46.102 59.523 L 46.102 59.523 L 40.969 70.586 L 40.969 70.586 Q 40.773 71 40.617 71.125 L 40.617 71.125 L 40.617 71.125 Q 40.414 71.289 40.125 71.289 L 40.125 71.289 L 40.125 71.289 Q 39.797 71.289 39.559 71.055 L 39.559 71.055 L 39.559 71.055 Q 39.32 70.82 39.32 70.523 L 39.32 70.523 L 39.32 70.523 Q 39.32 70.313 39.508 69.906 L 39.508 69.906 L 44.656 58.852 L 44.656 58.852 Q 44.852 58.438 45 58.313 L 45 58.313 L 45 58.313 Q 45.211 58.148 45.492 58.148 L 45.492 58.148 L 45.492 58.148 Q 45.82 58.148 46.055 58.379 L 46.055 58.379 L 46.055 58.379 Q 46.289 58.609 46.289 58.906 L 46.289 58.906 L 46.289 58.906 Q 46.289 59.117 46.102 59.523 Z  M 48.906 67.758 L 54.094 64.883 L 48.906 62.008 L 48.906 62.008 Q 48.516 61.789 48.387 61.617 L 48.387 61.617 L 48.387 61.617 Q 48.258 61.445 48.258 61.18 L 48.258 61.18 L 48.258 61.18 Q 48.258 60.844 48.5 60.602 L 48.5 60.602 L 48.5 60.602 Q 48.742 60.359 49.07 60.359 L 49.07 60.359 L 49.07 60.359 Q 49.273 60.359 49.695 60.586 L 49.695 60.586 L 57.422 64.883 L 49.695 69.18 L 49.695 69.18 Q 49.273 69.414 49.07 69.414 L 49.07 69.414 L 49.07 69.414 Q 48.742 69.414 48.5 69.172 L 48.5 69.172 L 48.5 69.172 Q 48.258 68.93 48.258 68.586 L 48.258 68.586 L 48.258 68.586 Q 48.258 68.32 48.387 68.148 L 48.387 68.148 L 48.387 68.148 Q 48.516 67.977 48.906 67.758 L 48.906 67.758 L 48.906 67.758 Z  M 65.32 69.445 L 63.445 69.445 L 63.445 69.07 L 63.445 69.07 Q 62.844 69.391 62.117 69.551 L 62.117 69.551 L 62.117 69.551 Q 61.391 69.711 60.797 69.711 L 60.797 69.711 L 60.797 69.711 Q 59.508 69.711 58.703 69.027 L 58.703 69.027 L 58.703 69.027 Q 57.898 68.344 57.898 67.516 L 57.898 67.516 L 57.898 67.516 Q 57.898 66.508 58.926 65.645 L 58.926 65.645 L 58.926 65.645 Q 59.953 64.781 61.766 64.781 L 61.766 64.781 L 61.766 64.781 Q 62.492 64.781 63.445 64.938 L 63.445 64.938 L 63.445 64.555 L 63.445 64.555 Q 63.445 64.195 63.137 63.969 L 63.137 63.969 L 63.137 63.969 Q 62.828 63.742 61.961 63.742 L 61.961 63.742 L 61.961 63.742 Q 61.25 63.742 60.117 64.023 L 60.117 64.023 L 60.117 64.023 Q 59.695 64.125 59.461 64.125 L 59.461 64.125 L 59.461 64.125 Q 59.141 64.125 58.918 63.895 L 58.918 63.895 L 58.918 63.895 Q 58.695 63.664 58.695 63.305 L 58.695 63.305 L 58.695 63.305 Q 58.695 63.102 58.773 62.953 L 58.773 62.953 L 58.773 62.953 Q 58.852 62.805 58.992 62.715 L 58.992 62.715 L 58.992 62.715 Q 59.133 62.625 59.578 62.5 L 59.578 62.5 L 59.578 62.5 Q 60.172 62.336 60.789 62.238 L 60.789 62.238 L 60.789 62.238 Q 61.406 62.141 61.906 62.141 L 61.906 62.141 L 61.906 62.141 Q 63.398 62.141 64.223 62.785 L 64.223 62.785 L 64.223 62.785 Q 65.047 63.43 65.047 64.547 L 65.047 64.547 L 65.047 67.844 L 65.32 67.844 L 65.32 67.844 Q 65.898 67.844 66.145 68.066 L 66.145 68.066 L 66.145 68.066 Q 66.391 68.289 66.391 68.648 L 66.391 68.648 L 66.391 68.648 Q 66.391 69 66.145 69.223 L 66.145 69.223 L 66.145 69.223 Q 65.898 69.445 65.32 69.445 L 65.32 69.445 L 65.32 69.445 Z  M 63.445 67.266 L 63.445 66.578 L 63.445 66.578 Q 62.484 66.391 61.672 66.391 L 61.672 66.391 L 61.672 66.391 Q 60.695 66.391 59.992 66.867 L 59.992 66.867 L 59.992 66.867 Q 59.555 67.172 59.555 67.484 L 59.555 67.484 L 59.555 67.484 Q 59.555 67.711 59.766 67.852 L 59.766 67.852 L 59.766 67.852 Q 60.156 68.109 60.836 68.109 L 60.836 68.109 L 60.836 68.109 Q 61.414 68.109 62.145 67.883 L 62.145 67.883 L 62.145 67.883 Q 62.875 67.656 63.445 67.266 L 63.445 67.266 L 63.445 67.266 Z  M 67.609 62.352 L 69.133 62.352 L 69.133 62.805 L 69.133 62.805 Q 69.523 62.422 69.84 62.277 L 69.84 62.277 L 69.84 62.277 Q 70.156 62.133 70.57 62.133 L 70.57 62.133 L 70.57 62.133 Q 70.922 62.133 71.266 62.305 L 71.266 62.305 L 71.266 62.305 Q 71.609 62.477 71.938 62.82 L 71.938 62.82 L 71.938 62.82 Q 72.352 62.477 72.777 62.309 L 72.777 62.309 L 72.777 62.309 Q 73.203 62.141 73.648 62.141 L 73.648 62.141 L 73.648 62.141 Q 74.539 62.141 75.094 62.617 L 75.094 62.617 L 75.094 62.617 Q 75.828 63.242 75.828 64.258 L 75.828 64.258 L 75.828 67.844 L 75.828 67.844 Q 76.328 67.844 76.57 68.07 L 76.57 68.07 L 76.57 68.07 Q 76.813 68.297 76.813 68.648 L 76.813 68.648 L 76.813 68.648 Q 76.813 69 76.57 69.223 L 76.57 69.223 L 76.57 69.223 Q 76.328 69.445 75.75 69.445 L 75.75 69.445 L 74.227 69.445 L 74.227 64.391 L 74.227 64.391 Q 74.227 64.023 74.094 63.883 L 74.094 63.883 L 74.094 63.883 Q 73.961 63.742 73.688 63.742 L 73.688 63.742 L 73.688 63.742 Q 73.422 63.742 73.195 63.883 L 73.195 63.883 L 73.195 63.883 Q 72.906 64.078 72.492 64.617 L 72.492 64.617 L 72.492 67.844 L 72.492 67.844 Q 72.992 67.844 73.234 68.07 L 73.234 68.07 L 73.234 68.07 Q 73.477 68.297 73.477 68.648 L 73.477 68.648 L 73.477 68.648 Q 73.477 69 73.234 69.223 L 73.234 69.223 L 73.234 69.223 Q 72.992 69.445 72.414 69.445 L 72.414 69.445 L 70.891 69.445 L 70.891 64.391 L 70.891 64.391 Q 70.891 64.031 70.754 63.887 L 70.754 63.887 L 70.754 63.887 Q 70.617 63.742 70.344 63.742 L 70.344 63.742 L 70.344 63.742 Q 70.063 63.742 69.789 63.918 L 69.789 63.918 L 69.789 63.918 Q 69.516 64.094 69.133 64.617 L 69.133 64.617 L 69.133 67.844 L 69.133 67.844 Q 69.633 67.844 69.879 68.07 L 69.879 68.07 L 69.879 68.07 Q 70.125 68.297 70.125 68.648 L 70.125 68.648 L 70.125 68.648 Q 70.125 69 69.879 69.223 L 69.879 69.223 L 69.879 69.223 Q 69.633 69.445 69.055 69.445 L 69.055 69.445 L 67.609 69.445 L 67.609 69.445 Q 67.031 69.445 66.785 69.223 L 66.785 69.223 L 66.785 69.223 Q 66.539 69 66.539 68.641 L 66.539 68.641 L 66.539 68.641 Q 66.539 68.289 66.781 68.066 L 66.781 68.066 L 66.781 68.066 Q 67.023 67.844 67.531 67.844 L 67.531 67.844 L 67.531 63.953 L 67.531 63.953 Q 67.023 63.953 66.781 63.727 L 66.781 63.727 L 66.781 63.727 Q 66.539 63.5 66.539 63.148 L 66.539 63.148 L 66.539 63.148 Q 66.539 62.797 66.785 62.574 L 66.785 62.574 L 66.785 62.574 Q 67.031 62.352 67.609 62.352 L 67.609 62.352 L 67.609 62.352 Z  M 77.211 62.352 L 78.734 62.352 L 78.734 62.805 L 78.734 62.805 Q 79.125 62.422 79.441 62.277 L 79.441 62.277 L 79.441 62.277 Q 79.758 62.133 80.172 62.133 L 80.172 62.133 L 80.172 62.133 Q 80.523 62.133 80.867 62.305 L 80.867 62.305 L 80.867 62.305 Q 81.211 62.477 81.539 62.82 L 81.539 62.82 L 81.539 62.82 Q 81.953 62.477 82.379 62.309 L 82.379 62.309 L 82.379 62.309 Q 82.805 62.141 83.25 62.141 L 83.25 62.141 L 83.25 62.141 Q 84.141 62.141 84.695 62.617 L 84.695 62.617 L 84.695 62.617 Q 85.43 63.242 85.43 64.258 L 85.43 64.258 L 85.43 67.844 L 85.43 67.844 Q 85.93 67.844 86.172 68.07 L 86.172 68.07 L 86.172 68.07 Q 86.414 68.297 86.414 68.648 L 86.414 68.648 L 86.414 68.648 Q 86.414 69 86.172 69.223 L 86.172 69.223 L 86.172 69.223 Q 85.93 69.445 85.352 69.445 L 85.352 69.445 L 83.828 69.445 L 83.828 64.391 L 83.828 64.391 Q 83.828 64.023 83.695 63.883 L 83.695 63.883 L 83.695 63.883 Q 83.563 63.742 83.289 63.742 L 83.289 63.742 L 83.289 63.742 Q 83.023 63.742 82.797 63.883 L 82.797 63.883 L 82.797 63.883 Q 82.508 64.078 82.094 64.617 L 82.094 64.617 L 82.094 67.844 L 82.094 67.844 Q 82.594 67.844 82.836 68.07 L 82.836 68.07 L 82.836 68.07 Q 83.078 68.297 83.078 68.648 L 83.078 68.648 L 83.078 68.648 Q 83.078 69 82.836 69.223 L 82.836 69.223 L 82.836 69.223 Q 82.594 69.445 82.016 69.445 L 82.016 69.445 L 80.492 69.445 L 80.492 64.391 L 80.492 64.391 Q 80.492 64.031 80.355 63.887 L 80.355 63.887 L 80.355 63.887 Q 80.219 63.742 79.945 63.742 L 79.945 63.742 L 79.945 63.742 Q 79.664 63.742 79.391 63.918 L 79.391 63.918 L 79.391 63.918 Q 79.117 64.094 78.734 64.617 L 78.734 64.617 L 78.734 67.844 L 78.734 67.844 Q 79.234 67.844 79.48 68.07 L 79.48 68.07 L 79.48 68.07 Q 79.727 68.297 79.727 68.648 L 79.727 68.648 L 79.727 68.648 Q 79.727 69 79.48 69.223 L 79.48 69.223 L 79.48 69.223 Q 79.234 69.445 78.656 69.445 L 78.656 69.445 L 77.211 69.445 L 77.211 69.445 Q 76.633 69.445 76.387 69.223 L 76.387 69.223 L 76.387 69.223 Q 76.141 69 76.141 68.641 L 76.141 68.641 L 76.141 68.641 Q 76.141 68.289 76.383 68.066 L 76.383 68.066 L 76.383 68.066 Q 76.625 67.844 77.133 67.844 L 77.133 67.844 L 77.133 63.953 L 77.133 63.953 Q 76.625 63.953 76.383 63.727 L 76.383 63.727 L 76.383 63.727 Q 76.141 63.5 76.141 63.148 L 76.141 63.148 L 76.141 63.148 Q 76.141 62.797 76.387 62.574 L 76.387 62.574 L 76.387 62.574 Q 76.633 62.352 77.211 62.352 L 77.211 62.352 L 77.211 62.352 Z  M 47.297 82.836 L 47.297 82.836 L 47.297 82.836 Q 47.297 84.969 45.941 86.387 L 45.941 86.387 L 45.941 86.387 Q 44.586 87.805 42.805 87.805 L 42.805 87.805 L 42.805 87.805 Q 41.203 87.805 39.914 86.625 L 39.914 86.625 L 39.914 86.625 Q 38.32 85.164 38.32 82.836 L 38.32 82.836 L 38.32 82.836 Q 38.32 80.508 39.914 79.039 L 39.914 79.039 L 39.914 79.039 Q 41.203 77.859 42.805 77.859 L 42.805 77.859 L 42.805 77.859 Q 44.586 77.859 45.941 79.277 L 45.941 79.277 L 45.941 79.277 Q 47.297 80.695 47.297 82.836 Z  M 45.695 82.836 L 45.695 82.836 L 45.695 82.836 Q 45.695 81.375 44.813 80.418 L 44.813 80.418 L 44.813 80.418 Q 43.93 79.461 42.805 79.461 L 42.805 79.461 L 42.805 79.461 Q 41.688 79.461 40.805 80.422 L 40.805 80.422 L 40.805 80.422 Q 39.922 81.383 39.922 82.836 L 39.922 82.836 L 39.922 82.836 Q 39.922 84.289 40.805 85.246 L 40.805 85.246 L 40.805 85.246 Q 41.688 86.203 42.805 86.203 L 42.805 86.203 L 42.805 86.203 Q 43.93 86.203 44.813 85.25 L 44.813 85.25 L 44.813 85.25 Q 45.695 84.297 45.695 82.836 Z  M 51.719 83.359 L 50.734 84.195 L 50.734 85.969 L 51.313 85.969 L 51.313 85.969 Q 51.891 85.969 52.137 86.191 L 52.137 86.191 L 52.137 86.191 Q 52.383 86.414 52.383 86.773 L 52.383 86.773 L 52.383 86.773 Q 52.383 87.125 52.137 87.348 L 52.137 87.348 L 52.137 87.348 Q 51.891 87.57 51.313 87.57 L 51.313 87.57 L 48.883 87.57 L 48.883 87.57 Q 48.305 87.57 48.059 87.348 L 48.059 87.348 L 48.059 87.348 Q 47.813 87.125 47.813 86.766 L 47.813 86.766 L 47.813 86.766 Q 47.813 86.414 48.063 86.191 L 48.063 86.191 L 48.063 86.191 Q 48.313 85.969 48.883 85.969 L 48.883 85.969 L 49.133 85.969 L 49.133 79.703 L 48.883 79.703 L 48.883 79.703 Q 48.305 79.703 48.059 79.48 L 48.059 79.48 L 48.059 79.48 Q 47.813 79.258 47.813 78.898 L 47.813 78.898 L 47.813 78.898 Q 47.813 78.539 48.059 78.316 L 48.059 78.316 L 48.059 78.316 Q 48.305 78.094 48.883 78.094 L 48.883 78.094 L 51.313 78.102 L 51.313 78.102 Q 51.891 78.102 52.137 78.32 L 52.137 78.32 L 52.137 78.32 Q 52.383 78.539 52.383 78.898 L 52.383 78.898 L 52.383 78.898 Q 52.383 79.258 52.137 79.48 L 52.137 79.48 L 52.137 79.48 Q 51.891 79.703 51.313 79.703 L 51.313 79.703 L 50.734 79.703 L 50.734 82.078 L 53.578 79.633 L 53.578 79.633 Q 53.328 79.453 53.234 79.297 L 53.234 79.297 L 53.234 79.297 Q 53.141 79.141 53.141 78.914 L 53.141 78.914 L 53.141 78.914 Q 53.141 78.547 53.387 78.32 L 53.387 78.32 L 53.387 78.32 Q 53.633 78.094 54.211 78.094 L 54.211 78.094 L 55.844 78.102 L 55.844 78.102 Q 56.422 78.102 56.668 78.32 L 56.668 78.32 L 56.668 78.32 Q 56.914 78.539 56.914 78.898 L 56.914 78.898 L 56.914 78.898 Q 56.914 79.25 56.668 79.477 L 56.668 79.477 L 56.668 79.477 Q 56.422 79.703 55.898 79.703 L 55.898 79.703 L 53.023 82.219 L 53.023 82.219 Q 53.828 82.68 54.535 83.625 L 54.535 83.625 L 54.535 83.625 Q 55.242 84.57 55.789 85.969 L 55.789 85.969 L 56.219 85.969 L 56.219 85.969 Q 56.789 85.969 57.035 86.191 L 57.035 86.191 L 57.035 86.191 Q 57.281 86.414 57.281 86.773 L 57.281 86.773 L 57.281 86.773 Q 57.281 87.125 57.039 87.348 L 57.039 87.348 L 57.039 87.348 Q 56.797 87.57 56.219 87.57 L 56.219 87.57 L 54.766 87.57 L 54.766 87.57 Q 54.266 86.375 53.672 85.289 L 53.672 85.289 L 53.672 85.289 Q 53.188 84.406 52.754 84.004 L 52.754 84.004 L 52.754 84.004 Q 52.32 83.602 51.719 83.359 L 51.719 83.359 L 51.719 83.359 Z  M 63.227 86.766 L 63.227 86.766 L 63.227 86.766 Q 63.227 87.219 62.906 87.523 L 62.906 87.523 L 62.906 87.523 Q 62.586 87.828 62.023 87.828 L 62.023 87.828 L 62.023 87.828 Q 61.461 87.828 61.141 87.523 L 61.141 87.523 L 61.141 87.523 Q 60.82 87.219 60.82 86.766 L 60.82 86.766 L 60.82 86.766 Q 60.82 86.313 61.141 86.008 L 61.141 86.008 L 61.141 86.008 Q 61.461 85.703 62.023 85.703 L 62.023 85.703 L 62.023 85.703 Q 62.586 85.703 62.906 86.008 L 62.906 86.008 L 62.906 86.008 Q 63.227 86.313 63.227 86.766 Z  M 46.102 95.773 L 46.102 95.773 L 40.969 106.836 L 40.969 106.836 Q 40.773 107.25 40.617 107.375 L 40.617 107.375 L 40.617 107.375 Q 40.414 107.539 40.125 107.539 L 40.125 107.539 L 40.125 107.539 Q 39.797 107.539 39.559 107.305 L 39.559 107.305 L 39.559 107.305 Q 39.32 107.07 39.32 106.773 L 39.32 106.773 L 39.32 106.773 Q 39.32 106.563 39.508 106.156 L 39.508 106.156 L 44.656 95.102 L 44.656 95.102 Q 44.852 94.688 45 94.563 L 45 94.563 L 45 94.563 Q 45.211 94.398 45.492 94.398 L 45.492 94.398 L 45.492 94.398 Q 45.82 94.398 46.055 94.629 L 46.055 94.629 L 46.055 94.629 Q 46.289 94.859 46.289 95.156 L 46.289 95.156 L 46.289 95.156 Q 46.289 95.367 46.102 95.773 Z  M 48.906 104.008 L 54.094 101.133 L 48.906 98.258 L 48.906 98.258 Q 48.516 98.039 48.387 97.867 L 48.387 97.867 L 48.387 97.867 Q 48.258 97.695 48.258 97.43 L 48.258 97.43 L 48.258 97.43 Q 48.258 97.094 48.5 96.852 L 48.5 96.852 L 48.5 96.852 Q 48.742 96.609 49.07 96.609 L 49.07 96.609 L 49.07 96.609 Q 49.273 96.609 49.695 96.836 L 49.695 96.836 L 57.422 101.133 L 49.695 105.43 L 49.695 105.43 Q 49.273 105.664 49.07 105.664 L 49.07 105.664 L 49.07 105.664 Q 48.742 105.664 48.5 105.422 L 48.5 105.422 L 48.5 105.422 Q 48.258 105.18 48.258 104.836 L 48.258 104.836 L 48.258 104.836 Q 48.258 104.57 48.387 104.398 L 48.387 104.398 L 48.387 104.398 Q 48.516 104.227 48.906 104.008 L 48.906 104.008 L 48.906 104.008 Z " fill-rule="evenodd" fill="rgb(127,255,0)"/></g></g></svg>