<?xml version="1.0" standalone="no"?><!-- Generator: Gravit.io --><svg xmlns="http://www.w3.org/2000/svg" xmlns:xlink="http://www.w3.org/1999/xlink" style="isolation:isolate" viewBox="611 477.563 563 543.437" width="563" height="543.437"><defs><clipPath id="_clipPath_5d9ctAMDfCezgQmFS5Mw9wxoHqVptb4m"><rect x="611" y="477.563" width="563" height="543.437"/></clipPath></defs><g clip-path="url(#_clipPath_5d9ctAMDfCezgQmFS5Mw9wxoHqVptb4m)"><g style="isolation:isolate"><linearGradient id="_lgradient_8" x1="0.842227816236627" y1="0.8560266764561921" x2="0.6508928571428574" y2="0.6069444444444448" gradientTransform="matrix(560,0,0,540,614,481)" gradientUnits="userSpaceOnUse"><stop offset="1.3043478260869565%" stop-opacity="1" style="stop-color:rgb(2,2,2)"/><stop offset="100%" stop-opacity="0.78" style="stop-color:rgb(235,255,80)"/></linearGradient><ellipse vector-effect="non-scaling-stroke" cx="893.9999999999998" cy="750.9999999999994" rx="280" ry="270" fill="url(#_lgradient_8)" fill-opacity="0.2" style="mix-blend-mode:luminosity;"/><ellipse vector-effect="non-scaling-stroke" cx="891" cy="747.5625" rx="280" ry="270" fill="rgb(250,230,120)"/></g><defs><filter id="61feZtbIh6UxlWTSysmwwDUn3Krwzpjm" x="-200%" y="-200%" width="400%" height="400%" filterUnits="objectBoundingBox" color-interpolation-filters="sRGB"><feGaussianBlur xmlns="http://www.w3.org/2000/svg" in="SourceGraphic" stdDeviation="5.152330875406834"/><feOffset xmlns="http://www.w3.org/2000/svg" dx="0" dy="0" result="pf_100_offsetBlur"/><feFlood xmlns="http://www.w3.org/2000/svg" flood-color="#B4A222" flood-opacity="0.5"/><feComposite xmlns="http://www.w3.org/2000/svg" in2="pf_100_offsetBlur" operator="in" result="pf_100_dropShadow"/><feBlend xmlns="http://www.w3.org/2000/svg" in="SourceGraphic" in2="pf_100_dropShadow" mode="normal"/></filter></defs><g filter="url(#61feZtbIh6UxlWTSysmwwDUn3Krwzpjm)"><path d=" M 958.645 795.225 L 976.733 850.404 L 1039.001 850.404 L 1039.001 850.404 L 929.818 532.129 L 855.608 532.129 L 745.999 850.404 L 808.907 850.404 L 835.563 769.085 L 911.405 769.085 L 806.18 921.485 L 806.669 966.434 L 991.756 964.42 L 991.252 918.116 L 872.907 919.403 L 958.645 795.225 Z  M 897.191 596.733 L 892.713 581.146 L 891.434 586.116 L 891.434 586.116 Q 889.301 594.248 886.316 604.639 L 886.316 604.639 L 886.316 604.639 Q 883.33 615.029 849.637 718.938 L 849.637 718.938 L 936.002 718.938 L 906.361 627.453 L 897.191 596.733 L 897.191 596.733 Z " fill-rule="evenodd" fill="rgb(77,79,63)"/></g></g></svg>