<?xml version="1.0" standalone="no"?><!-- Generator: Gravit.io --><svg xmlns="http://www.w3.org/2000/svg" xmlns:xlink="http://www.w3.org/1999/xlink" style="isolation:isolate" viewBox="0 0 437 170" width="437" height="170"><defs><clipPath id="_clipPath_uME2OJSFhpDjzSAjWfQB1OJbavVkAaUY"><rect width="437" height="170"/></clipPath></defs><g clip-path="url(#_clipPath_uME2OJSFhpDjzSAjWfQB1OJbavVkAaUY)"><rect x="0" y="0" width="437" height="169.63" transform="matrix(1,0,0,1,0,0)" fill="rgb(195,197,213)"/><g><rect x="0" y="0" width="8" height="63" transform="matrix(1,0,0,1,0,0)" fill="rgb(255,255,255)" fill-opacity="0.639216"/><rect x="10" y="0" width="8" height="109" transform="matrix(1,0,0,1,0,0)" fill="rgb(255,255,255)" fill-opacity="0.639216"/><rect x="20" y="0" width="8" height="119" transform="matrix(1,0,0,1,0,0)" fill="rgb(255,255,255)" fill-opacity="0.639216"/><rect x="30" y="0" width="8" height="134" transform="matrix(1,0,0,1,0,0)" fill="rgb(255,255,255)" fill-opacity="0.639216"/><rect x="40" y="0" width="8" height="150" transform="matrix(1,0,0,1,0,0)" fill="rgb(255,255,255)" fill-opacity="0.639216"/><rect x="50" y="0" width="8" height="162" transform="matrix(1,0,0,1,0,0)" fill="rgb(255,255,255)" fill-opacity="0.639216"/><rect x="60" y="0" width="8" height="166" transform="matrix(1,0,0,1,0,0)" fill="rgb(255,255,255)" fill-opacity="0.639216"/><rect x="70" y="0" width="8" height="169.63" transform="matrix(1,0,0,1,0,0)" fill="rgb(255,255,255)" fill-opacity="0.639216"/><rect x="80" y="0" width="8" height="135" transform="matrix(1,0,0,1,0,0)" fill="rgb(255,255,255)" fill-opacity="0.639216"/><rect x="90" y="30" width="8" height="103" transform="matrix(1,0,0,1,0,0)" fill="rgb(255,255,255)" fill-opacity="0.639216"/><rect x="100" y="34" width="8" height="99" transform="matrix(1,0,0,1,0,0)" fill="rgb(255,255,255)" fill-opacity="0.639216"/><rect x="110" y="39" width="8" height="94" transform="matrix(1,0,0,1,0,0)" fill="rgb(255,255,255)" fill-opacity="0.639216"/><rect x="120" y="56.259" width="8" height="86" transform="matrix(1,0,0,1,0,0)" fill="rgb(255,255,255)" fill-opacity="0.639216"/><rect x="130" y="3" width="8" height="113.259" transform="matrix(1,0,0,1,0,0)" fill="rgb(255,255,255)" fill-opacity="0.639216"/><rect x="140" y="6" width="8" height="90.259" transform="matrix(1,0,0,1,0,0)" fill="rgb(255,255,255)" fill-opacity="0.639216"/><rect x="150" y="22" width="8" height="61.259" transform="matrix(1,0,0,1,0,0)" fill="rgb(255,255,255)" fill-opacity="0.639216"/><rect x="160" y="17" width="8" height="45.259" transform="matrix(1,0,0,1,0,0)" fill="rgb(255,255,255)" fill-opacity="0.639216"/><rect x="170" y="28" width="8" height="31.63" transform="matrix(1,0,0,1,0,0)" fill="rgb(255,255,255)" fill-opacity="0.639216"/><rect x="180" y="41" width="8" height="18.63" transform="matrix(1,0,0,1,0,0)" fill="rgb(255,255,255)" fill-opacity="0.639216"/><rect x="289" y="147" width="8" height="22.63" transform="matrix(1,0,0,1,0,0)" fill="rgb(255,255,255)" fill-opacity="0.639216"/><rect x="299" y="135" width="8" height="34.63" transform="matrix(1,0,0,1,0,0)" fill="rgb(255,255,255)" fill-opacity="0.639216"/><rect x="309" y="120" width="8" height="49.63" transform="matrix(1,0,0,1,0,0)" fill="rgb(255,255,255)" fill-opacity="0.639216"/><rect x="319" y="115" width="8" height="54.63" transform="matrix(1,0,0,1,0,0)" fill="rgb(255,255,255)" fill-opacity="0.639216"/><rect x="329" y="113" width="8" height="56.63" transform="matrix(1,0,0,1,0,0)" fill="rgb(255,255,255)" fill-opacity="0.639216"/><rect x="339" y="110" width="8" height="59.63" transform="matrix(1,0,0,1,0,0)" fill="rgb(255,255,255)" fill-opacity="0.639216"/><rect x="349" y="110" width="8" height="59.63" transform="matrix(1,0,0,1,0,0)" fill="rgb(255,255,255)" fill-opacity="0.639216"/><rect x="359" y="113" width="8" height="56.63" transform="matrix(1,0,0,1,0,0)" fill="rgb(255,255,255)" fill-opacity="0.639216"/><rect x="369" y="123" width="8" height="46.63" transform="matrix(1,0,0,1,0,0)" fill="rgb(255,255,255)" fill-opacity="0.639216"/><rect x="379" y="130" width="8" height="39.63" transform="matrix(1,0,0,1,0,0)" fill="rgb(255,255,255)" fill-opacity="0.639216"/><rect x="389" y="123" width="8" height="46.63" transform="matrix(1,0,0,1,0,0)" fill="rgb(255,255,255)" fill-opacity="0.639216"/><rect x="399" y="126" width="8" height="43.63" transform="matrix(1,0,0,1,0,0)" fill="rgb(255,255,255)" fill-opacity="0.639216"/><rect x="409" y="130" width="8" height="39.63" transform="matrix(1,0,0,1,0,0)" fill="rgb(255,255,255)" fill-opacity="0.639216"/><rect x="419" y="145" width="8" height="24.63" transform="matrix(1,0,0,1,0,0)" fill="rgb(255,255,255)" fill-opacity="0.639216"/><rect x="429" y="0" width="8" height="147.815" transform="matrix(1,0,0,1,0,0)" fill="rgb(255,255,255)" fill-opacity="0.639216"/><rect x="419" y="93.185" width="8" height="43.63" transform="matrix(1,0,0,1,0,0)" fill="rgb(255,255,255)" fill-opacity="0.639216"/><rect x="419" y="0" width="8" height="81.815" transform="matrix(1,0,0,1,0,0)" fill="rgb(255,255,255)" fill-opacity="0.639216"/><rect x="409" y="0" width="8" height="81.815" transform="matrix(1,0,0,1,0,0)" fill="rgb(255,255,255)" fill-opacity="0.639216"/><rect x="409" y="93.185" width="8" height="18.63" transform="matrix(1,0,0,1,0,0)" fill="rgb(255,255,255)" fill-opacity="0.639216"/><rect x="399" y="0" width="8" height="111.815" transform="matrix(1,0,0,1,0,0)" fill="rgb(255,255,255)" fill-opacity="0.639216"/><rect x="389" y="0" width="8" height="111.815" transform="matrix(1,0,0,1,0,0)" fill="rgb(255,255,255)" fill-opacity="0.639216"/><rect x="379" y="42.5" width="8" height="52.315" transform="matrix(1,0,0,1,0,0)" fill="rgb(255,255,255)" fill-opacity="0.639216"/><rect x="369" y="42.5" width="8" height="52.315" transform="matrix(1,0,0,1,0,0)" fill="rgb(255,255,255)" fill-opacity="0.639216"/><rect x="359" y="0" width="8" height="94.815" transform="matrix(1,0,0,1,0,0)" fill="rgb(255,255,255)" fill-opacity="0.639216"/><rect x="349" y="46.5" width="8" height="39.759" transform="matrix(1,0,0,1,0,0)" fill="rgb(255,255,255)" fill-opacity="0.639216"/><rect x="339" y="56.5" width="8" height="30.759" transform="matrix(1,0,0,1,0,0)" fill="rgb(255,255,255)" fill-opacity="0.639216"/><rect x="329" y="38.5" width="8" height="59.759" transform="matrix(1,0,0,1,0,0)" fill="rgb(255,255,255)" fill-opacity="0.639216"/><rect x="319" y="23.5" width="8" height="35.759" transform="matrix(1,0,0,1,0,0)" fill="rgb(255,255,255)" fill-opacity="0.639216"/><rect x="309" y="38.5" width="8" height="20.759" transform="matrix(1,0,0,1,0,0)" fill="rgb(255,255,255)" fill-opacity="0.639216"/><rect x="309" y="87.259" width="8" height="20.759" transform="matrix(1,0,0,1,0,0)" fill="rgb(255,255,255)" fill-opacity="0.639216"/><rect x="319" y="87.259" width="8" height="20.759" transform="matrix(1,0,0,1,0,0)" fill="rgb(255,255,255)" fill-opacity="0.639216"/><rect x="369" y="0" width="8" height="37.945" transform="matrix(1,0,0,1,0,0)" fill="rgb(255,255,255)" fill-opacity="0.639216"/><rect x="349" y="0" width="8" height="24.945" transform="matrix(1,0,0,1,0,0)" fill="rgb(255,255,255)" fill-opacity="0.639216"/><rect x="204" y="0" width="8" height="12.63" transform="matrix(1,0,0,1,0,0)" fill="rgb(255,255,255)" fill-opacity="0.639216"/><rect x="214" y="0" width="8" height="16.63" transform="matrix(1,0,0,1,0,0)" fill="rgb(255,255,255)" fill-opacity="0.639216"/><rect x="80" y="161.63" width="8" height="8" transform="matrix(1,0,0,1,0,0)" fill="rgb(255,255,255)" fill-opacity="0.639216"/><rect x="120" y="150" width="8" height="8" transform="matrix(1,0,0,1,0,0)" fill="rgb(255,255,255)" fill-opacity="0.639216"/><rect x="150" y="161.63" width="8" height="8" transform="matrix(1,0,0,1,0,0)" fill="rgb(255,255,255)" fill-opacity="0.639216"/><rect x="160" y="65" width="8" height="8" transform="matrix(1,0,0,1,0,0)" fill="rgb(255,255,255)" fill-opacity="0.639216"/><rect x="180" y="65" width="8" height="8" transform="matrix(1,0,0,1,0,0)" fill="rgb(255,255,255)" fill-opacity="0.639216"/><rect x="160" y="75.75" width="8" height="8" transform="matrix(1,0,0,1,0,0)" fill="rgb(255,255,255)" fill-opacity="0.639216"/><rect x="90" y="161.63" width="8" height="8" transform="matrix(1,0,0,1,0,0)" fill="rgb(255,255,255)" fill-opacity="0.639216"/><rect x="100" y="156.63" width="8" height="13" transform="matrix(1,0,0,1,0,0)" fill="rgb(255,255,255)" fill-opacity="0.639216"/></g><circle vector-effect="non-scaling-stroke" cx="19.055" cy="113.09300000000002" r="4.055" fill="rgb(217,50,211)"/><circle vector-effect="non-scaling-stroke" cx="105.665" cy="84.666" r="4.149000000000001" fill="rgb(217,50,211)"/><circle vector-effect="non-scaling-stroke" cx="125.928" cy="79.297" r="4.031000000000006" fill="rgb(217,50,211)"/><circle vector-effect="non-scaling-stroke" cx="337.969" cy="68.602" r="4.031000000000006" fill="rgb(217,50,211)"/><ellipse vector-effect="non-scaling-stroke" cx="378.9690000000002" cy="82.26649999999998" rx="8.031000000000006" ry="8.061499999999981" fill="rgb(217,50,211)"/><circle vector-effect="non-scaling-stroke" cx="427.969" cy="38.469" r="4.031000000000006" fill="rgb(217,50,211)"/><circle vector-effect="non-scaling-stroke" cx="125.92800000000001" cy="101.635" r="7.403000000000006" fill="rgb(217,50,211)"/><rect x="6" y="74" width="46" height="89" transform="matrix(1,0,0,1,0,0)" fill="none" vector-effect="non-scaling-stroke" stroke-width="1" stroke="rgb(142,142,142)" stroke-linejoin="round" stroke-linecap="round" stroke-miterlimit="2"/><rect x="88" y="59" width="64" height="86.815" transform="matrix(1,0,0,1,0,0)" fill="none" vector-effect="non-scaling-stroke" stroke-width="1" stroke="rgb(136,135,135)" stroke-linejoin="round" stroke-linecap="round" stroke-miterlimit="2"/><g><path d=" M 1.638 3.133 L 2.579 3.133 C 2.68 3.133 2.764 3.158 2.83 3.208 C 2.896 3.259 2.941 3.323 2.964 3.401 L 4.693 9.219 C 4.724 9.324 4.753 9.437 4.778 9.558 C 4.803 9.679 4.828 9.805 4.851 9.938 C 4.878 9.805 4.906 9.678 4.933 9.555 C 4.96 9.432 4.991 9.32 5.026 9.219 L 6.995 3.401 C 7.018 3.335 7.064 3.274 7.132 3.217 C 7.2 3.161 7.283 3.133 7.38 3.133 L 7.707 3.133 C 7.809 3.133 7.891 3.158 7.956 3.208 C 8.02 3.259 8.066 3.323 8.093 3.401 L 10.05 9.219 C 10.12 9.422 10.182 9.653 10.237 9.914 C 10.26 9.786 10.281 9.663 10.301 9.546 C 10.32 9.429 10.346 9.32 10.377 9.219 L 12.112 3.401 C 12.131 3.331 12.175 3.269 12.243 3.214 C 12.311 3.16 12.394 3.133 12.491 3.133 L 13.373 3.133 L 10.762 11.503 L 9.746 11.503 L 7.626 5.119 C 7.583 4.998 7.544 4.858 7.509 4.698 C 7.489 4.776 7.471 4.851 7.453 4.923 C 7.436 4.995 7.417 5.06 7.398 5.119 L 5.266 11.503 L 4.249 11.503 L 1.638 3.133 L 1.638 3.133 Z " fill="rgb(89,89,89)"/><path d=" M 22.252 7.321 C 22.252 7.948 22.153 8.523 21.954 9.047 C 21.756 9.571 21.475 10.021 21.113 10.399 C 20.751 10.777 20.316 11.07 19.807 11.278 C 19.299 11.486 18.738 11.591 18.122 11.591 C 17.507 11.591 16.946 11.486 16.44 11.278 C 15.934 11.07 15.5 10.777 15.137 10.399 C 14.775 10.021 14.495 9.571 14.296 9.047 C 14.098 8.523 13.998 7.948 13.998 7.321 C 13.998 6.694 14.098 6.118 14.296 5.595 C 14.495 5.071 14.775 4.619 15.137 4.239 C 15.5 3.86 15.934 3.565 16.44 3.355 C 16.946 3.144 17.507 3.039 18.122 3.039 C 18.738 3.039 19.299 3.144 19.807 3.355 C 20.316 3.565 20.751 3.86 21.113 4.239 C 21.475 4.619 21.756 5.071 21.954 5.595 C 22.153 6.118 22.252 6.694 22.252 7.321 Z  M 21.09 7.321 C 21.09 6.807 21.02 6.345 20.879 5.936 C 20.739 5.527 20.541 5.182 20.284 4.9 C 20.027 4.617 19.715 4.4 19.349 4.248 C 18.983 4.096 18.574 4.02 18.122 4.02 C 17.674 4.02 17.268 4.096 16.901 4.248 C 16.535 4.4 16.223 4.617 15.964 4.9 C 15.705 5.182 15.505 5.527 15.365 5.936 C 15.225 6.345 15.155 6.807 15.155 7.321 C 15.155 7.835 15.225 8.295 15.365 8.702 C 15.505 9.109 15.705 9.454 15.964 9.736 C 16.223 10.018 16.535 10.235 16.901 10.384 C 17.268 10.534 17.674 10.609 18.122 10.609 C 18.574 10.609 18.983 10.534 19.349 10.384 C 19.715 10.235 20.027 10.018 20.284 9.736 C 20.541 9.454 20.739 9.109 20.879 8.702 C 21.02 8.295 21.09 7.835 21.09 7.321 Z " fill="rgb(89,89,89)"/><path d=" M 25.044 8.01 L 25.044 11.503 L 23.917 11.503 L 23.917 3.133 L 26.282 3.133 C 26.812 3.133 27.27 3.186 27.655 3.293 C 28.041 3.4 28.359 3.555 28.61 3.758 C 28.861 3.96 29.047 4.204 29.168 4.491 C 29.289 4.777 29.349 5.097 29.349 5.452 C 29.349 5.747 29.302 6.024 29.209 6.281 C 29.115 6.538 28.98 6.769 28.803 6.973 C 28.626 7.178 28.41 7.352 28.155 7.496 C 27.9 7.64 27.61 7.749 27.287 7.823 C 27.427 7.905 27.552 8.024 27.661 8.179 L 30.103 11.503 L 29.098 11.503 C 28.892 11.503 28.74 11.423 28.642 11.264 L 26.469 8.273 C 26.403 8.179 26.331 8.112 26.253 8.071 C 26.175 8.03 26.059 8.01 25.903 8.01 L 25.044 8.01 L 25.044 8.01 Z  M 25.044 7.186 L 26.23 7.186 C 26.561 7.186 26.852 7.146 27.103 7.067 C 27.354 6.987 27.565 6.874 27.734 6.728 C 27.903 6.582 28.031 6.408 28.117 6.205 C 28.202 6.003 28.245 5.779 28.245 5.533 C 28.245 5.035 28.081 4.659 27.752 4.406 C 27.422 4.153 26.933 4.026 26.282 4.026 L 25.044 4.026 L 25.044 7.186 L 25.044 7.186 Z " fill="rgb(89,89,89)"/><path d=" M 32.457 10.551 L 36.078 10.551 L 36.078 11.503 L 31.323 11.503 L 31.323 3.133 L 32.457 3.133 L 32.457 10.551 L 32.457 10.551 Z " fill="rgb(89,89,89)"/><path d=" M 44.583 7.321 C 44.583 7.948 44.484 8.518 44.285 9.032 C 44.087 9.546 43.806 9.986 43.444 10.352 C 43.082 10.718 42.648 11.002 42.141 11.202 C 41.635 11.403 41.074 11.503 40.459 11.503 L 37.328 11.503 L 37.328 3.133 L 40.459 3.133 C 41.074 3.133 41.635 3.233 42.141 3.433 C 42.648 3.634 43.082 3.918 43.444 4.286 C 43.806 4.654 44.087 5.095 44.285 5.609 C 44.484 6.123 44.583 6.694 44.583 7.321 Z  M 43.421 7.321 C 43.421 6.807 43.351 6.347 43.21 5.942 C 43.07 5.537 42.872 5.195 42.615 4.914 C 42.358 4.634 42.046 4.42 41.68 4.272 C 41.314 4.124 40.907 4.05 40.459 4.05 L 38.467 4.05 L 38.467 10.586 L 40.459 10.586 C 40.907 10.586 41.314 10.512 41.68 10.364 C 42.046 10.216 42.358 10.003 42.615 9.724 C 42.872 9.446 43.07 9.104 43.21 8.699 C 43.351 8.294 43.421 7.835 43.421 7.321 Z " fill="rgb(89,89,89)"/></g><rect x="0" y="65.63" width="144" height="86.815" transform="matrix(1,0,0,1,0,0)" fill="none" vector-effect="non-scaling-stroke" stroke-width="1" stroke="rgb(138,138,138)" stroke-linejoin="round" stroke-linecap="round" stroke-miterlimit="2"/><g><path d=" M 68.565 76.372 C 68.921 76.372 69.239 76.312 69.519 76.192 C 69.799 76.072 70.036 75.904 70.23 75.688 C 70.424 75.472 70.572 75.214 70.674 74.914 C 70.776 74.614 70.827 74.284 70.827 73.924 L 70.827 68.698 L 71.985 68.698 L 71.985 73.924 C 71.985 74.42 71.906 74.88 71.748 75.304 C 71.59 75.728 71.364 76.095 71.07 76.405 C 70.776 76.715 70.417 76.958 69.993 77.134 C 69.569 77.31 69.093 77.398 68.565 77.398 C 68.037 77.398 67.561 77.31 67.137 77.134 C 66.713 76.958 66.353 76.715 66.057 76.405 C 65.761 76.095 65.534 75.728 65.376 75.304 C 65.218 74.88 65.139 74.42 65.139 73.924 L 65.139 68.698 L 66.297 68.698 L 66.297 73.918 C 66.297 74.278 66.348 74.608 66.45 74.908 C 66.552 75.208 66.7 75.466 66.894 75.682 C 67.088 75.898 67.326 76.067 67.608 76.189 C 67.89 76.311 68.209 76.372 68.565 76.372 L 68.565 76.372 Z " fill="rgb(77,77,77)"/><path d=" M 78.387 70.042 C 78.351 70.102 78.313 70.147 78.273 70.177 C 78.233 70.207 78.181 70.222 78.117 70.222 C 78.049 70.222 77.97 70.188 77.88 70.12 C 77.79 70.052 77.676 69.977 77.538 69.895 C 77.4 69.813 77.234 69.738 77.04 69.67 C 76.846 69.602 76.611 69.568 76.335 69.568 C 76.075 69.568 75.845 69.603 75.645 69.673 C 75.445 69.743 75.278 69.838 75.144 69.958 C 75.01 70.078 74.909 70.219 74.841 70.381 C 74.773 70.543 74.739 70.718 74.739 70.906 C 74.739 71.146 74.798 71.345 74.916 71.503 C 75.034 71.661 75.19 71.796 75.384 71.908 C 75.578 72.02 75.798 72.117 76.044 72.199 C 76.29 72.281 76.542 72.366 76.8 72.454 C 77.058 72.542 77.31 72.641 77.556 72.751 C 77.802 72.861 78.022 73 78.216 73.168 C 78.41 73.336 78.566 73.542 78.684 73.786 C 78.802 74.03 78.861 74.33 78.861 74.686 C 78.861 75.062 78.797 75.415 78.669 75.745 C 78.541 76.075 78.354 76.362 78.108 76.606 C 77.862 76.85 77.56 77.042 77.202 77.182 C 76.844 77.322 76.437 77.392 75.981 77.392 C 75.425 77.392 74.918 77.291 74.46 77.089 C 74.002 76.887 73.611 76.614 73.287 76.27 L 73.623 75.718 C 73.655 75.674 73.694 75.637 73.74 75.607 C 73.786 75.577 73.837 75.562 73.893 75.562 C 73.977 75.562 74.073 75.607 74.181 75.697 C 74.289 75.787 74.424 75.886 74.586 75.994 C 74.748 76.102 74.944 76.201 75.174 76.291 C 75.404 76.381 75.685 76.426 76.017 76.426 C 76.293 76.426 76.539 76.388 76.755 76.312 C 76.971 76.236 77.154 76.129 77.304 75.991 C 77.454 75.853 77.569 75.688 77.649 75.496 C 77.729 75.304 77.769 75.09 77.769 74.854 C 77.769 74.594 77.71 74.381 77.592 74.215 C 77.474 74.049 77.319 73.91 77.127 73.798 C 76.935 73.686 76.716 73.591 76.47 73.513 C 76.224 73.435 75.972 73.355 75.714 73.273 C 75.456 73.191 75.204 73.096 74.958 72.988 C 74.712 72.88 74.493 72.74 74.301 72.568 C 74.109 72.396 73.954 72.181 73.836 71.923 C 73.718 71.665 73.659 71.346 73.659 70.966 C 73.659 70.662 73.718 70.368 73.836 70.084 C 73.954 69.8 74.125 69.548 74.349 69.328 C 74.573 69.108 74.85 68.932 75.18 68.8 C 75.51 68.668 75.889 68.602 76.317 68.602 C 76.797 68.602 77.235 68.678 77.631 68.83 C 78.027 68.982 78.373 69.202 78.669 69.49 L 78.387 70.042 L 78.387 70.042 Z " fill="rgb(77,77,77)"/></g><g><path d=" M 12.624 77.494 L 13.59 77.494 C 13.694 77.494 13.78 77.52 13.848 77.572 C 13.916 77.624 13.962 77.69 13.986 77.77 L 15.762 83.746 C 15.794 83.854 15.823 83.97 15.849 84.094 C 15.875 84.218 15.9 84.348 15.924 84.484 C 15.952 84.348 15.98 84.217 16.008 84.091 C 16.036 83.965 16.068 83.85 16.104 83.746 L 18.126 77.77 C 18.15 77.702 18.197 77.639 18.267 77.581 C 18.337 77.523 18.422 77.494 18.522 77.494 L 18.858 77.494 C 18.962 77.494 19.047 77.52 19.113 77.572 C 19.179 77.624 19.226 77.69 19.254 77.77 L 21.264 83.746 C 21.336 83.954 21.4 84.192 21.456 84.46 C 21.48 84.328 21.502 84.202 21.522 84.082 C 21.542 83.962 21.568 83.85 21.6 83.746 L 23.382 77.77 C 23.402 77.698 23.447 77.634 23.517 77.578 C 23.587 77.522 23.672 77.494 23.772 77.494 L 24.678 77.494 L 21.996 86.092 L 20.952 86.092 L 18.774 79.534 C 18.73 79.41 18.69 79.266 18.654 79.102 C 18.634 79.182 18.615 79.259 18.597 79.333 C 18.579 79.407 18.56 79.474 18.54 79.534 L 16.35 86.092 L 15.306 86.092 L 12.624 77.494 L 12.624 77.494 Z " fill="rgb(89,89,89)"/><path d=" M 31.11 77.494 L 31.11 78.442 L 26.982 78.442 L 26.982 81.298 L 30.324 81.298 L 30.324 82.21 L 26.982 82.21 L 26.982 85.144 L 31.11 85.144 L 31.11 86.092 L 25.812 86.092 L 25.812 77.494 L 31.11 77.494 L 31.11 77.494 Z " fill="rgb(89,89,89)"/><path d=" M 37.188 78.838 C 37.152 78.898 37.114 78.943 37.074 78.973 C 37.034 79.003 36.982 79.018 36.918 79.018 C 36.85 79.018 36.771 78.984 36.681 78.916 C 36.591 78.848 36.477 78.773 36.339 78.691 C 36.201 78.609 36.035 78.534 35.841 78.466 C 35.647 78.398 35.412 78.364 35.136 78.364 C 34.876 78.364 34.646 78.399 34.446 78.469 C 34.246 78.539 34.079 78.634 33.945 78.754 C 33.811 78.874 33.71 79.015 33.642 79.177 C 33.574 79.339 33.54 79.514 33.54 79.702 C 33.54 79.942 33.599 80.141 33.717 80.299 C 33.835 80.457 33.991 80.592 34.185 80.704 C 34.379 80.816 34.599 80.913 34.845 80.995 C 35.091 81.077 35.343 81.162 35.601 81.25 C 35.859 81.338 36.111 81.437 36.357 81.547 C 36.603 81.657 36.823 81.796 37.017 81.964 C 37.211 82.132 37.367 82.338 37.485 82.582 C 37.603 82.826 37.662 83.126 37.662 83.482 C 37.662 83.858 37.598 84.211 37.47 84.541 C 37.342 84.871 37.155 85.158 36.909 85.402 C 36.663 85.646 36.361 85.838 36.003 85.978 C 35.645 86.118 35.238 86.188 34.782 86.188 C 34.226 86.188 33.719 86.087 33.261 85.885 C 32.803 85.683 32.412 85.41 32.088 85.066 L 32.424 84.514 C 32.456 84.47 32.495 84.433 32.541 84.403 C 32.587 84.373 32.638 84.358 32.694 84.358 C 32.778 84.358 32.874 84.403 32.982 84.493 C 33.09 84.583 33.225 84.682 33.387 84.79 C 33.549 84.898 33.745 84.997 33.975 85.087 C 34.205 85.177 34.486 85.222 34.818 85.222 C 35.094 85.222 35.34 85.184 35.556 85.108 C 35.772 85.032 35.955 84.925 36.105 84.787 C 36.255 84.649 36.37 84.484 36.45 84.292 C 36.53 84.1 36.57 83.886 36.57 83.65 C 36.57 83.39 36.511 83.177 36.393 83.011 C 36.275 82.845 36.12 82.706 35.928 82.594 C 35.736 82.482 35.517 82.387 35.271 82.309 C 35.025 82.231 34.773 82.151 34.515 82.069 C 34.257 81.987 34.005 81.892 33.759 81.784 C 33.513 81.676 33.294 81.536 33.102 81.364 C 32.91 81.192 32.755 80.977 32.637 80.719 C 32.519 80.461 32.46 80.142 32.46 79.762 C 32.46 79.458 32.519 79.164 32.637 78.88 C 32.755 78.596 32.926 78.344 33.15 78.124 C 33.374 77.904 33.651 77.728 33.981 77.596 C 34.311 77.464 34.69 77.398 35.118 77.398 C 35.598 77.398 36.036 77.474 36.432 77.626 C 36.828 77.778 37.174 77.998 37.47 78.286 L 37.188 78.838 L 37.188 78.838 Z " fill="rgb(89,89,89)"/><path d=" M 45 77.494 L 45 78.472 L 42.222 78.472 L 42.222 86.092 L 41.058 86.092 L 41.058 78.472 L 38.268 78.472 L 38.268 77.494 L 45 77.494 L 45 77.494 Z " fill="rgb(89,89,89)"/></g><g><path d=" M 310.462 44.141 L 310.462 45.625 L 302.503 45.625 L 302.503 31.348 L 310.462 31.348 L 310.462 32.822 L 304.163 32.822 L 304.163 37.422 L 310.081 37.422 L 310.081 38.887 L 304.163 38.887 L 304.163 44.141 L 310.462 44.141 L 310.462 44.141 Z  M 322.747 31.348 L 324.407 31.348 L 324.407 40.586 L 324.407 40.586 Q 324.407 43.027 322.933 44.424 L 322.933 44.424 L 322.933 44.424 Q 321.458 45.82 318.88 45.82 L 318.88 45.82 L 318.88 45.82 Q 316.302 45.82 314.891 44.414 L 314.891 44.414 L 314.891 44.414 Q 313.479 43.008 313.479 40.547 L 313.479 40.547 L 313.479 31.348 L 315.14 31.348 L 315.14 40.664 L 315.14 40.664 Q 315.14 42.451 316.116 43.408 L 316.116 43.408 L 316.116 43.408 Q 317.093 44.365 318.987 44.365 L 318.987 44.365 L 318.987 44.365 Q 320.794 44.365 321.77 43.403 L 321.77 43.403 L 321.77 43.403 Q 322.747 42.441 322.747 40.644 L 322.747 40.644 L 322.747 31.348 L 322.747 31.348 Z " fill-rule="evenodd" fill="rgb(89,89,89)"/></g><g><path d=" M 97.95 133.494 L 97.95 134.442 L 93.822 134.442 L 93.822 137.298 L 97.164 137.298 L 97.164 138.21 L 93.822 138.21 L 93.822 141.144 L 97.95 141.144 L 97.95 142.092 L 92.652 142.092 L 92.652 133.494 L 97.95 133.494 L 97.95 133.494 Z " fill="rgb(89,89,89)"/><path d=" M 106.698 142.092 L 105.798 142.092 C 105.694 142.092 105.61 142.066 105.546 142.014 C 105.482 141.962 105.434 141.896 105.402 141.816 L 104.598 139.74 L 100.74 139.74 L 99.936 141.816 C 99.908 141.888 99.86 141.952 99.792 142.008 C 99.724 142.064 99.64 142.092 99.54 142.092 L 98.64 142.092 L 102.078 133.494 L 103.26 133.494 L 106.698 142.092 L 106.698 142.092 Z  M 101.064 138.9 L 104.274 138.9 L 102.924 135.402 C 102.836 135.186 102.75 134.916 102.666 134.592 C 102.622 134.756 102.579 134.907 102.537 135.045 C 102.495 135.183 102.454 135.304 102.414 135.408 L 101.064 138.9 L 101.064 138.9 Z " fill="rgb(89,89,89)"/><path d=" M 112.188 134.838 C 112.152 134.898 112.114 134.943 112.074 134.973 C 112.034 135.003 111.982 135.018 111.918 135.018 C 111.85 135.018 111.771 134.984 111.681 134.916 C 111.591 134.848 111.477 134.773 111.339 134.691 C 111.201 134.609 111.035 134.534 110.841 134.466 C 110.647 134.398 110.412 134.364 110.136 134.364 C 109.876 134.364 109.646 134.399 109.446 134.469 C 109.246 134.539 109.079 134.634 108.945 134.754 C 108.811 134.874 108.71 135.015 108.642 135.177 C 108.574 135.339 108.54 135.514 108.54 135.702 C 108.54 135.942 108.599 136.141 108.717 136.299 C 108.835 136.457 108.991 136.592 109.185 136.704 C 109.379 136.816 109.599 136.913 109.845 136.995 C 110.091 137.077 110.343 137.162 110.601 137.25 C 110.859 137.338 111.111 137.437 111.357 137.547 C 111.603 137.657 111.823 137.796 112.017 137.964 C 112.211 138.132 112.367 138.338 112.485 138.582 C 112.603 138.826 112.662 139.126 112.662 139.482 C 112.662 139.858 112.598 140.211 112.47 140.541 C 112.342 140.871 112.155 141.158 111.909 141.402 C 111.663 141.646 111.361 141.838 111.003 141.978 C 110.645 142.118 110.238 142.188 109.782 142.188 C 109.226 142.188 108.719 142.087 108.261 141.885 C 107.803 141.683 107.412 141.41 107.088 141.066 L 107.424 140.514 C 107.456 140.47 107.495 140.433 107.541 140.403 C 107.587 140.373 107.638 140.358 107.694 140.358 C 107.778 140.358 107.874 140.403 107.982 140.493 C 108.09 140.583 108.225 140.682 108.387 140.79 C 108.549 140.898 108.745 140.997 108.975 141.087 C 109.205 141.177 109.486 141.222 109.818 141.222 C 110.094 141.222 110.34 141.184 110.556 141.108 C 110.772 141.032 110.955 140.925 111.105 140.787 C 111.255 140.649 111.37 140.484 111.45 140.292 C 111.53 140.1 111.57 139.886 111.57 139.65 C 111.57 139.39 111.511 139.177 111.393 139.011 C 111.275 138.845 111.12 138.706 110.928 138.594 C 110.736 138.482 110.517 138.387 110.271 138.309 C 110.025 138.231 109.773 138.151 109.515 138.069 C 109.257 137.987 109.005 137.892 108.759 137.784 C 108.513 137.676 108.294 137.536 108.102 137.364 C 107.91 137.192 107.755 136.977 107.637 136.719 C 107.519 136.461 107.46 136.142 107.46 135.762 C 107.46 135.458 107.519 135.164 107.637 134.88 C 107.755 134.596 107.926 134.344 108.15 134.124 C 108.374 133.904 108.651 133.728 108.981 133.596 C 109.311 133.464 109.69 133.398 110.118 133.398 C 110.598 133.398 111.036 133.474 111.432 133.626 C 111.828 133.778 112.174 133.998 112.47 134.286 L 112.188 134.838 L 112.188 134.838 Z " fill="rgb(89,89,89)"/><path d=" M 120 133.494 L 120 134.472 L 117.222 134.472 L 117.222 142.092 L 116.058 142.092 L 116.058 134.472 L 113.268 134.472 L 113.268 133.494 L 120 133.494 L 120 133.494 Z " fill="rgb(89,89,89)"/></g><rect x="297" y="18.293" width="140" height="87" transform="matrix(1,0,0,1,0,0)" fill="none" vector-effect="non-scaling-stroke" stroke-width="1" stroke="rgb(134,131,131)" stroke-linejoin="round" stroke-linecap="round" stroke-miterlimit="2"/></g></svg>